<svg xmlns="http://www.w3.org/2000/svg" xmlns:xlink="http://www.w3.org/1999/xlink" width="1080" height="162" viewBox="0 0 1080 162"><defs><path id="a" d="M93.885 0l93.884 160.945H0z"/><mask id="h" width="187.769" height="160.945" x="0" y="0" fill="#fff"><use xlink:href="#a"/></mask><path id="b" d="M0 .029h62.59v160.945H0z"/><mask id="i" width="62.59" height="160.945" x="0" y="0" fill="#fff"><use xlink:href="#b"/></mask><path id="c" d="M98.355.029h62.59v160.945h-62.59z"/><mask id="j" width="62.59" height="160.945" x="0" y="0" fill="#fff"><use xlink:href="#c"/></mask><circle id="d" cx="80.473" cy="81.133" r="80.473"/><mask id="k" width="160.945" height="160.945" x="0" y="0" fill="#fff"><use xlink:href="#d"/></mask><path id="e" d="M58.393 57.412h44.216v160.945H58.393z"/><mask id="l" width="44.216" height="160.945" x="0" y="0" fill="#fff"><use xlink:href="#e"/></mask><path id="f" d="M58.393.187h44.216v160.945H58.393z"/><mask id="m" width="44.216" height="160.945" x="0" y="0" fill="#fff"><use xlink:href="#f"/></mask><path id="g" d="M58.393-57.933h44.216v160.945H58.393z"/><mask id="n" width="44.216" height="160.945" x="0" y="0" fill="#fff"><use xlink:href="#g"/></mask></defs><g fill="none" fill-rule="evenodd" stroke="#212A34" stroke-dasharray="1 1 1" stroke-linecap="square" stroke-width="4" transform="translate(.633 -.97)"><use mask="url(#h)" transform="translate(0 1.029)" xlink:href="#a"/><g transform="translate(323.92 1)"><use mask="url(#i)" xlink:href="#b"/><use mask="url(#j)" xlink:href="#c"/></g><use mask="url(#k)" transform="translate(621.014 .368)" xlink:href="#d"/><g transform="translate(918.08 1.736)"><use mask="url(#l)" transform="rotate(-90 80.501 137.884)" xlink:href="#e"/><use mask="url(#m)" transform="rotate(-90 80.501 80.66)" xlink:href="#f"/><use mask="url(#n)" transform="rotate(-90 80.501 22.54)" xlink:href="#g"/></g></g></svg>