<svg width="161" height="48" viewBox="0 0 161 48" xmlns="http://www.w3.org/2000/svg"><title>alloe-logo</title><g fill="none" fill-rule="evenodd"><path fill="#F12E65" fill-rule="nonzero" d="M13.97 0l13.969 23.948H0z"/><path d="M48.197 0h9.313v23.948h-9.313zm14.635 0h9.313v23.948h-9.313z" fill-rule="nonzero" fill="#FC0"/><circle fill="#5000C5" fill-rule="nonzero" cx="104.378" cy="11.974" r="11.974"/><path d="M136.61 23.913v-6.58h23.948v6.58zm0-8.516V8.819h23.949v6.58zm-.001-8.647V.17h23.948v6.58z" fill-rule="nonzero" fill="#41DE7F"/><path d="M39.968 45v-9.748h.637v4.22c.308-.38.66-.682 1.055-.907a2.635 2.635 0 0 1 1.33-.339c.366 0 .69.058.968.175.28.116.51.283.694.502.183.219.321.482.415.79.094.309.14.657.14 1.046V45h-.636v-4.261c0-.626-.143-1.116-.428-1.47-.286-.356-.724-.533-1.314-.533-.437 0-.844.112-1.22.338-.374.225-.71.535-1.004.928V45h-.637zm9.762-6.774c.376 0 .723.065 1.042.195.32.13.596.318.831.566.234.248.418.552.55.914.131.362.197.777.197 1.246 0 .099-.015.166-.044.202-.029.035-.074.053-.137.053h-4.817v.127c0 .5.058.94.174 1.32.116.38.281.698.496.955.214.257.473.45.777.58.304.13.643.194 1.018.194a3.048 3.048 0 0 0 1.491-.359c.168-.091.3-.174.399-.247.098-.074.17-.111.214-.111.058 0 .103.022.134.067l.174.214a1.82 1.82 0 0 1-.425.376 3.036 3.036 0 0 1-.59.298 4.296 4.296 0 0 1-.696.197c-.248.05-.497.074-.748.074a3.17 3.17 0 0 1-1.246-.238 2.642 2.642 0 0 1-.965-.693 3.157 3.157 0 0 1-.62-1.116 4.817 4.817 0 0 1-.217-1.51c0-.479.068-.92.204-1.324a3.03 3.03 0 0 1 .59-1.045c.257-.293.572-.522.945-.687a3.104 3.104 0 0 1 1.27-.248zm.007.476c-.344 0-.652.054-.925.16a2.023 2.023 0 0 0-.706.463c-.2.201-.36.442-.483.724a3.294 3.294 0 0 0-.244.944h4.395c0-.357-.05-.677-.148-.961a2.056 2.056 0 0 0-.415-.72 1.798 1.798 0 0 0-.643-.453 2.127 2.127 0 0 0-.831-.157zM58.32 45c-.134 0-.217-.063-.248-.188l-.094-.85a7.097 7.097 0 0 1-.546.482 3.34 3.34 0 0 1-.566.362 2.789 2.789 0 0 1-.637.224 3.413 3.413 0 0 1-.75.077 2.21 2.21 0 0 1-.663-.1 1.637 1.637 0 0 1-.57-.308 1.513 1.513 0 0 1-.399-.533c-.1-.217-.15-.477-.15-.78 0-.282.08-.543.24-.785.162-.24.413-.45.755-.63.341-.178.781-.321 1.32-.428a11.5 11.5 0 0 1 1.94-.188v-.697c0-.616-.134-1.09-.4-1.423-.265-.333-.66-.5-1.182-.5a2.21 2.21 0 0 0-.82.135 2.918 2.918 0 0 0-.574.294 3.611 3.611 0 0 0-.382.295c-.098.09-.18.134-.247.134a.216.216 0 0 1-.201-.12l-.114-.195a3.874 3.874 0 0 1 1.099-.79c.384-.18.82-.268 1.306-.268.357 0 .67.057.938.17.268.114.49.277.667.49.176.212.309.469.398.77.09.302.134.638.134 1.008V45h-.254zm-2.68-.355c.259 0 .497-.028.713-.084a2.66 2.66 0 0 0 .603-.234c.186-.1.359-.22.52-.359a7.32 7.32 0 0 0 .475-.449v-1.735a11.93 11.93 0 0 0-1.638.144c-.458.078-.835.184-1.132.318-.297.134-.516.294-.657.48a1.02 1.02 0 0 0-.21.633c0 .223.036.416.11.579.073.163.17.297.291.402.12.105.261.182.422.231.161.05.328.074.503.074zm5.768-9.394V45h-.636v-9.748h.636zm4.181 9.856c-.45 0-.803-.125-1.055-.375-.252-.25-.379-.636-.379-1.16v-4.555h-.958a.179.179 0 0 1-.12-.04.142.142 0 0 1-.047-.114v-.248l1.139-.08.16-2.386a.184.184 0 0 1 .05-.107.152.152 0 0 1 .118-.047h.302v2.546h2.097v.476h-2.097v4.522c0 .184.023.341.07.473a.89.89 0 0 0 .194.325c.083.085.18.147.292.187.111.04.232.06.361.06.161 0 .3-.023.416-.07a1.722 1.722 0 0 0 .51-.308c.053-.047.095-.07.126-.07.036 0 .072.022.108.067l.174.281c-.17.188-.385.338-.647.452a2.012 2.012 0 0 1-.814.171zM68.544 45v-9.748h.636v4.22c.309-.38.66-.682 1.056-.907a2.635 2.635 0 0 1 1.33-.339c.366 0 .689.058.968.175.279.116.51.283.693.502.183.219.322.482.416.79.093.309.14.657.14 1.046V45h-.636v-4.261c0-.626-.143-1.116-.429-1.47-.286-.356-.724-.533-1.313-.533-.438 0-.844.112-1.22.338a3.54 3.54 0 0 0-1.005.928V45h-.636zm8.536 2.144a.456.456 0 0 1-.104.154c-.043.04-.104.06-.184.06h-.456l1.172-2.606-2.82-6.419h.53a.23.23 0 0 1 .157.05.33.33 0 0 1 .083.111l2.245 5.186c.027.067.05.135.07.204.02.07.04.14.057.212a5.84 5.84 0 0 1 .148-.416l2.217-5.186a.288.288 0 0 1 .094-.117.224.224 0 0 1 .134-.044h.49l-3.833 8.811zm7.658.214v-9.024h.348c.058 0 .105.012.14.036.037.025.057.068.061.131l.06 1.032a3.52 3.52 0 0 1 1.036-.958 2.538 2.538 0 0 1 1.33-.355c.821 0 1.46.283 1.916.85.455.568.683 1.419.683 2.553a4.7 4.7 0 0 1-.19 1.364 3.272 3.272 0 0 1-.56 1.098 2.65 2.65 0 0 1-.908.734c-.36.179-.774.268-1.243.268-.456 0-.849-.083-1.18-.248a2.398 2.398 0 0 1-.857-.737v3.256h-.636zm2.794-8.622c-.443 0-.843.115-1.203.345-.36.23-.678.55-.955.961v3.497c.255.385.537.655.848.811.31.156.664.235 1.062.235a2.34 2.34 0 0 0 1.032-.215c.294-.143.541-.345.74-.606.199-.261.348-.574.449-.938.1-.364.15-.765.15-1.203 0-.991-.181-1.72-.545-2.187-.364-.467-.89-.7-1.578-.7zm6.887-.51c.376 0 .723.065 1.042.195.32.13.596.318.831.566.234.248.418.552.55.914.131.362.197.777.197 1.246 0 .099-.015.166-.044.202-.029.035-.074.053-.137.053h-4.817v.127c0 .5.058.94.174 1.32.116.38.281.698.496.955.214.257.473.45.777.58.304.13.643.194 1.018.194a3.048 3.048 0 0 0 1.491-.359c.168-.091.3-.174.399-.247.098-.074.17-.111.214-.111.058 0 .103.022.134.067l.174.214a1.82 1.82 0 0 1-.425.376 3.036 3.036 0 0 1-.59.298 4.296 4.296 0 0 1-.696.197 3.77 3.77 0 0 1-.747.074 3.17 3.17 0 0 1-1.247-.238 2.642 2.642 0 0 1-.964-.693 3.157 3.157 0 0 1-.62-1.116 4.817 4.817 0 0 1-.218-1.51c0-.479.068-.92.204-1.324a3.03 3.03 0 0 1 .59-1.045c.257-.293.572-.522.945-.687a3.104 3.104 0 0 1 1.27-.248zm.007.476c-.344 0-.652.054-.925.16a2.023 2.023 0 0 0-.706.463c-.2.201-.36.442-.483.724a3.294 3.294 0 0 0-.244.944h4.395c0-.357-.05-.677-.148-.961a2.056 2.056 0 0 0-.415-.72 1.798 1.798 0 0 0-.643-.453 2.127 2.127 0 0 0-.831-.157zm6.867-.476c.478 0 .906.082 1.284.245.377.163.695.394.954.693.26.3.457.66.593 1.082a4.6 4.6 0 0 1 .205 1.417c0 .523-.069.994-.205 1.414-.136.42-.334.78-.593 1.079-.259.3-.577.53-.954.69-.378.16-.806.241-1.284.241-.477 0-.905-.08-1.283-.241a2.612 2.612 0 0 1-.958-.69c-.261-.3-.46-.659-.596-1.079a4.568 4.568 0 0 1-.204-1.414 4.6 4.6 0 0 1 .204-1.417 3.05 3.05 0 0 1 .596-1.082c.262-.299.581-.53.958-.693a3.206 3.206 0 0 1 1.283-.245zm0 6.359a2.48 2.48 0 0 0 1.042-.205c.297-.136.545-.331.744-.586.199-.255.347-.562.446-.921.098-.36.147-.763.147-1.21 0-.442-.05-.844-.147-1.206a2.618 2.618 0 0 0-.446-.928 1.99 1.99 0 0 0-.744-.593 2.443 2.443 0 0 0-1.041-.207c-.398 0-.745.069-1.042.208a1.99 1.99 0 0 0-.744.592 2.661 2.661 0 0 0-.449.928c-.1.362-.15.764-.15 1.206 0 .447.05.85.15 1.21.1.36.25.666.449.921s.447.45.744.586c.297.136.644.205 1.041.205zm4.71 2.773v-9.024h.349c.058 0 .105.012.14.036.036.025.057.068.061.131l.06 1.032c.295-.402.64-.722 1.035-.958a2.538 2.538 0 0 1 1.33-.355c.822 0 1.461.283 1.917.85.455.568.683 1.419.683 2.553a4.7 4.7 0 0 1-.191 1.364 3.272 3.272 0 0 1-.56 1.098c-.245.31-.548.555-.907.734-.36.179-.774.268-1.243.268-.456 0-.849-.083-1.18-.248a2.398 2.398 0 0 1-.857-.737v3.256h-.636zm2.794-8.622c-.442 0-.843.115-1.202.345-.36.23-.678.55-.955.961v3.497c.255.385.537.655.848.811.31.156.664.235 1.062.235a2.34 2.34 0 0 0 1.031-.215c.295-.143.542-.345.74-.606a2.7 2.7 0 0 0 .45-.938c.1-.364.15-.765.15-1.203 0-.991-.182-1.72-.546-2.187-.364-.467-.89-.7-1.578-.7zm5.2-3.484V45h-.637v-9.748h.637zm4.87 2.974c.376 0 .723.065 1.042.195.32.13.597.318.831.566.235.248.418.552.55.914.131.362.197.777.197 1.246 0 .099-.014.166-.043.202-.03.035-.075.053-.138.053h-4.817v.127c0 .5.058.94.174 1.32.116.38.282.698.496.955.215.257.474.45.777.58.304.13.643.194 1.019.194a3.048 3.048 0 0 0 1.49-.359c.168-.091.3-.174.4-.247.097-.074.169-.111.213-.111.059 0 .103.022.134.067l.175.214c-.108.134-.25.26-.426.376a3.036 3.036 0 0 1-.59.298 4.296 4.296 0 0 1-.696.197 3.77 3.77 0 0 1-.747.074 3.17 3.17 0 0 1-1.246-.238 2.642 2.642 0 0 1-.965-.693 3.157 3.157 0 0 1-.62-1.116 4.817 4.817 0 0 1-.218-1.51c0-.479.068-.92.205-1.324a3.03 3.03 0 0 1 .59-1.045c.256-.293.571-.522.944-.687a3.104 3.104 0 0 1 1.27-.248zm.007.476c-.344 0-.652.054-.924.16a2.023 2.023 0 0 0-.707.463c-.199.201-.36.442-.483.724a3.294 3.294 0 0 0-.244.944h4.395c0-.357-.049-.677-.147-.961a2.056 2.056 0 0 0-.416-.72 1.798 1.798 0 0 0-.643-.453 2.127 2.127 0 0 0-.83-.157z" fill="#55615F"/></g></svg>