<svg xmlns="http://www.w3.org/2000/svg" xmlns:xlink="http://www.w3.org/1999/xlink" width="1080" height="162" viewBox="0 0 1080 162">
  <defs>
    <polygon id="alloe-interactive-a" points="93.885 0 187.769 160.945 0 160.945" />
    <mask id="alloe-interactive-h" width="187.769" height="160.945" x="0" y="0" fill="#fff">
      <use xlink:href="#alloe-interactive-a" />
    </mask>
    <rect id="alloe-interactive-b" width="62.59" height="160.945" y=".029" />
    <mask id="alloe-interactive-i" width="62.59" height="160.945" x="0" y="0" fill="#fff">
      <use xlink:href="#alloe-interactive-b" />
    </mask>
    <rect id="alloe-interactive-c" width="62.59" height="160.945" x="98.355" y=".029" />
    <mask id="alloe-interactive-j" width="62.59" height="160.945" x="0" y="0" fill="#fff">
      <use xlink:href="#alloe-interactive-c" />
    </mask>
    <circle id="alloe-interactive-d" cx="80.473" cy="81.133" r="80.473" />
    <mask id="alloe-interactive-k" width="160.945" height="160.945" x="0" y="0" fill="#fff">
      <use xlink:href="#alloe-interactive-d" />
    </mask>
    <rect id="alloe-interactive-e" width="44.216" height="160.945" x="58.393" y="57.412" />
    <mask id="alloe-interactive-l" width="44.216" height="160.945" x="0" y="0" fill="#fff">
      <use xlink:href="#alloe-interactive-e" />
    </mask>
    <rect id="alloe-interactive-f" width="44.216" height="160.945" x="58.393" y=".187" />
    <mask id="alloe-interactive-m" width="44.216" height="160.945" x="0" y="0" fill="#fff">
      <use xlink:href="#alloe-interactive-f" />
    </mask>
    <rect id="alloe-interactive-g" width="44.216" height="160.945" x="58.393" y="-57.933" />
    <mask id="alloe-interactive-n" width="44.216" height="160.945" x="0" y="0" fill="#fff">
      <use xlink:href="#alloe-interactive-g" />
    </mask>
  </defs>
  <g fill="none" fill-rule="evenodd" stroke="#212A34" stroke-dasharray="1 1 1" stroke-linecap="square" stroke-width="4" transform="translate(.633 -.97)">
    <use mask="url(#alloe-interactive-h)" transform="translate(0 1.029)" xlink:href="#alloe-interactive-a" />
    <g transform="translate(323.92 1)">
      <use mask="url(#alloe-interactive-i)" xlink:href="#alloe-interactive-b" />
      <use mask="url(#alloe-interactive-j)" xlink:href="#alloe-interactive-c" />
    </g>
    <use mask="url(#alloe-interactive-k)" transform="translate(621.014 .368)" xlink:href="#alloe-interactive-d" />
    <g transform="translate(918.08 1.736)">
      <use mask="url(#alloe-interactive-l)" transform="rotate(-90 80.501 137.884)" xlink:href="#alloe-interactive-e" />
      <use mask="url(#alloe-interactive-m)" transform="rotate(-90 80.501 80.66)" xlink:href="#alloe-interactive-f" />
      <use mask="url(#alloe-interactive-n)" transform="rotate(-90 80.501 22.54)" xlink:href="#alloe-interactive-g" />
    </g>
  </g>
</svg>
