<svg xmlns="http://www.w3.org/2000/svg" viewBox="0 0 50 50" fill="#fff"><path d="M33 6c-.875 0-1.695.2-2.375.656-.379.254-.59.707-.863 1.086C28.953 7.31 28.05 7 27 7a4.994 4.994 0 0 0-4.223 2.344A4.912 4.912 0 0 0 21 9c-.484 0-.887.203-1.324.336C18.82 7.863 17.176 7 15.5 7c-1.938 0-3.559 1.266-4.2 3H11c-1.105 0-2.363.2-3.469.938-.972.648-1.761 1.718-2.18 3.207C3.962 14.004 3 14 3 14a.996.996 0 0 0-.996 1.094s.25 3.02 1.574 5.906h-.531C1.855 21 .949 22.05 1 23.219c.25 5.726 2.223 10.222 4.219 13.375 1 1.578 2.004 2.828 2.812 3.73.805.903 1.473 1.54 1.551 1.63h.004c1.156 1.265 2.879 1.73 5.168 1.921 2.289.191 5.258.125 9.246.125h2c3.988 0 6.96.063 9.25-.129 2.285-.195 4.008-.664 5.168-1.93.078-.086.746-.722 1.55-1.629a28.228 28.228 0 0 0 2.813-3.722c1.996-3.153 3.969-7.65 4.219-13.371.05-1.169-.855-2.219-2.047-2.219h-.39C48.047 17.227 48 13.805 48 13.805a1.002 1.002 0 0 0-.668-.93s-1.957-.707-4.703-.86a22.468 22.468 0 0 0-.91-.027C40.945 10.16 39.05 9 37 9c-.07 0-.133.004-.203.008C36.344 7.297 34.844 6 33 6zm0 2c1.117 0 2 .883 2 2l.078.395c.004 0 .117.21.18.277.125.14.23.195.304.234.157.074.227.082.282.094.117.02.168.016.226.02.114.003.22 0 .328-.004.223-.004.473-.016.602-.016 1.016 0 1.91.434 2.473 1.121-2.04.254-4.23.926-6.266 2.356-1.531 1.074-2.602 2.265-3.332 3.48A8.048 8.048 0 0 0 26 14.59V14c0-1.406-.594-2.68-1.54-3.59A2.985 2.985 0 0 1 27 9c1.031 0 1.8.3 2.36.766a1 1 0 0 0 .863.21 1 1 0 0 0 .687-.562c.262-.574.531-.898.832-1.101C32.043 8.113 32.41 8 33 8zM15.5 9c1 0 2.242.719 2.582 1.418l.125.367a.999.999 0 0 0 1.414.57A2.95 2.95 0 0 1 21 11c1.668 0 3 1.332 3 3v.066A8.43 8.43 0 0 0 23 14c-3.148 0-5.875 1.84-7.18 4.496a8.293 8.293 0 0 0-1.367-1.351c-2.09-1.598-4.82-2.329-7.094-2.723.305-.926.758-1.469 1.282-1.82C9.297 12.164 10.14 12 11 12c.078 0 .527.004 1.004 0a1 1 0 0 0 .984-.855C13.164 9.953 14.238 9 15.5 9zm26.059 4.973c2.152.015 3.836.5 4.37.66-.03.933-.199 3.426-1.53 6.367h-5.907c1.133-1.43 2.824-2.05 2.824-2.05a1 1 0 1 0-.632-1.9s-3.133.997-4.551 3.95h-5.211c-.02-.14-.04-.281-.063-.422.426-1.473 1.41-2.996 3.5-4.469 2.16-1.52 4.489-2.035 6.5-2.12.106.015.22.015.328-.005.122-.004.25-.011.372-.011zM23 16a5.98 5.98 0 0 1 5.813 4.527c-.04.157-.083.317-.11.473h-11.39c-.047-.117-.11-.223-.16-.34A5.981 5.981 0 0 1 23 16zm-18.785.113c.64.024 1.14 0 2.605.242 2.145.352 4.727 1.086 6.418 2.38.774.59 1.38 1.347 1.84 2.199 0 .023-.008.043-.012.066h-3.652l-2.707-2.707a1.006 1.006 0 0 0-.715-.305c-.41.004-.773.25-.93.625a1 1 0 0 0 .231 1.094L8.586 21H5.812c-1.023-1.809-1.41-3.73-1.597-4.887zM3.047 23h1.918c.191.059.402.059.594 0h5.289c.109.02.222.02.332 0h4.652c.11.02.219.02.324 0h13.676c.11.02.219.02.324 0h16.797c-.02 0 .05.016.047.133A25.04 25.04 0 0 1 46.297 28H3.703A25.3 25.3 0 0 1 3 23.137c-.004-.117.066-.137.047-.137zm1.226 7h41.45a25.768 25.768 0 0 1-2.63 5.52 26.685 26.685 0 0 1-2.616 3.464c-.75.84-1.247 1.29-1.54 1.61-.644.707-1.761 1.105-3.859 1.281-2.101.18-5.066.125-9.078.125h-2c-4.012 0-6.98.059-9.078-.117-2.102-.176-3.215-.57-3.86-1.278h-.003c-.293-.32-.786-.77-1.536-1.609a27.036 27.036 0 0 1-2.617-3.469A25.75 25.75 0 0 1 4.273 30z"/></svg>