<svg xmlns="http://www.w3.org/2000/svg" viewBox="0 0 50 50" fill="#fff"><path d="M25 0C11.203 0 0 11.203 0 25s11.203 25 25 25 25-11.203 25-25S38.797 0 25 0zm0 2c12.715 0 23 10.285 23 23S37.715 48 25 48 2 37.715 2 25 12.285 2 25 2zm-.094 2.969c-.043.008-.086.02-.125.031A1.002 1.002 0 0 0 24 6v16.188c-1.16.414-2 1.511-2 2.812 0 .453.133.863.313 1.25l-6.032 6.031a1.014 1.014 0 0 0 0 1.438c.399.398 1.04.398 1.438 0l6.031-6.032c.387.18.797.313 1.25.313a3 3 0 0 0 3-3c0-1.3-.84-2.398-2-2.813V6a1 1 0 0 0-1.094-1.031z"/></svg>