<?xml version="1.0" encoding="UTF-8"?>
<svg xmlns="http://www.w3.org/2000/svg" xmlns:xlink="http://www.w3.org/1999/xlink" viewBox="0 0 50 50" version="1.1" fill="#ffffff"><g id="surface1" fill="#ffffff"><path style=" " d="M 42 3 C 41.382813 3 40.9375 3.253906 40.484375 3.539063 C 40.035156 3.828125 39.5625 4.1875 39.007813 4.609375 C 37.894531 5.449219 36.453125 6.53125 34.445313 7.621094 C 34.371094 7.660156 34.289063 7.699219 34.21875 7.738281 C 34.054688 7.359375 33.671875 7.121094 33.261719 7.136719 C 32.945313 7.148438 32.652344 7.308594 32.472656 7.570313 C 32.292969 7.832031 32.25 8.164063 32.355469 8.464844 L 32.40625 8.621094 C 31.820313 8.882813 31.183594 9.136719 30.515625 9.382813 L 30.511719 9.367188 C 30.375 8.941406 29.96875 8.65625 29.519531 8.671875 C 29.203125 8.683594 28.910156 8.847656 28.730469 9.109375 C 28.554688 9.371094 28.507813 9.703125 28.613281 10 L 28.621094 10.023438 C 28.007813 10.210938 27.375 10.390625 26.699219 10.5625 C 26.554688 10.148438 26.15625 9.875 25.71875 9.890625 C 25.441406 9.902344 25.183594 10.027344 25 10.238281 C 24.820313 10.449219 24.734375 10.722656 24.765625 11 C 24.171875 11.117188 23.5625 11.226563 22.929688 11.328125 L 22.890625 11.203125 C 22.753906 10.777344 22.347656 10.492188 21.898438 10.511719 C 21.621094 10.519531 21.359375 10.644531 21.179688 10.855469 C 21 11.066406 20.914063 11.339844 20.941406 11.617188 C 20.324219 11.6875 19.644531 11.730469 18.984375 11.785156 L 18.949219 11.683594 C 18.8125 11.253906 18.410156 10.96875 17.957031 10.984375 C 17.445313 11.003906 17.027344 11.414063 17 11.925781 C 16.035156 11.972656 15.042969 12 14 12 C 12.964844 12 12.007813 12.363281 11.277344 12.953125 C 10.546875 13.539063 10 14.394531 10 15.390625 C 10 16.46875 10.558594 17.484375 11.457031 18.054688 C 12.089844 18.457031 13.003906 18.566406 13.890625 18.71875 C 13.753906 20.613281 13.230469 21.902344 12.410156 22.738281 C 11.472656 23.695313 10.160156 24.242188 8.738281 24.625 C 7.316406 25.011719 5.828125 25.214844 4.558594 25.640625 C 3.921875 25.851563 3.320313 26.121094 2.824219 26.59375 C 2.328125 27.070313 2 27.796875 2 28.5625 C 2 31.222656 3.636719 32.726563 4.8125 34.140625 C 5.332031 34.769531 6.203125 36.144531 6.890625 37.316406 C 7.554688 38.441406 8.023438 39.304688 8.070313 39.386719 C 8.707031 42.222656 10.125 43.949219 11.546875 44.882813 C 12.996094 45.835938 14.351563 46 15 46 C 16.242188 46 17.367188 45.746094 18.453125 45.183594 C 19.535156 44.621094 20.578125 43.777344 21.855469 42.605469 C 21.867188 42.59375 21.875 42.585938 21.886719 42.574219 C 24.09375 40.367188 24.679688 39.070313 25.046875 38.082031 C 25.414063 37.097656 25.539063 36.515625 27.324219 34.730469 C 29.875 32.179688 31.074219 31.796875 32.578125 31.328125 C 34.082031 30.859375 35.9375 30.320313 38.816406 27.84375 C 44.511719 22.949219 47.996094 17.558594 47.996094 12 C 47.996094 7.054688 44.554688 4.160156 44.4375 4.0625 C 43.78125 3.40625 42.925781 3 42 3 Z M 42 5 C 42.371094 5 42.679688 5.117188 42.972656 5.410156 C 43 5.445313 43.03125 5.480469 43.0625 5.507813 C 43.144531 5.605469 43.226563 5.703125 43.308594 5.828125 C 43.703125 6.445313 44 7.46875 44 8.816406 C 44 9.5625 43.488281 11.074219 42.667969 12.558594 C 41.84375 14.039063 40.746094 15.546875 39.753906 16.558594 C 38.945313 17.382813 38.1875 17.535156 37.246094 17.660156 C 36.304688 17.785156 35.117188 17.769531 34.109375 18.65625 C 33.085938 19.554688 32.878906 20.800781 32.589844 21.816406 C 32.296875 22.835938 31.996094 23.613281 31.40625 24.03125 C 29.554688 25.335938 26.257813 27.8125 23.59375 29.914063 C 22.542969 30.742188 20.976563 30.988281 19.234375 31.519531 C 17.488281 32.050781 15.550781 33.039063 14.417969 35.433594 C 13.460938 37.460938 12.242188 37.988281 11.191406 38.15625 C 10.304688 38.300781 9.828125 38.128906 9.625 38.070313 C 9.457031 37.769531 9.179688 37.261719 8.617188 36.300781 C 7.90625 35.097656 7.066406 33.726563 6.351563 32.863281 C 5.054688 31.300781 4 30.433594 4 28.5625 C 4 28.269531 4.046875 28.195313 4.207031 28.042969 C 4.367188 27.886719 4.703125 27.699219 5.191406 27.535156 C 6.171875 27.210938 7.683594 26.984375 9.261719 26.558594 C 10.839844 26.132813 12.527344 25.480469 13.839844 24.140625 C 15.152344 22.800781 16 20.792969 16 18 C 16 17.480469 15.605469 17.050781 15.089844 17.003906 C 13.824219 16.894531 12.960938 16.640625 12.53125 16.367188 C 12.097656 16.09375 12 15.925781 12 15.390625 C 12 15.148438 12.160156 14.808594 12.53125 14.511719 C 12.898438 14.210938 13.445313 14 14 14 C 15.246094 14 16.4375 13.964844 17.578125 13.90625 L 18.050781 15.316406 C 18.226563 15.839844 18.792969 16.125 19.316406 15.949219 C 19.839844 15.773438 20.125 15.207031 19.949219 14.683594 L 19.640625 13.757813 C 20.304688 13.699219 20.933594 13.621094 21.5625 13.546875 L 21.992188 14.839844 C 22.097656 15.1875 22.382813 15.453125 22.738281 15.527344 C 23.097656 15.605469 23.464844 15.480469 23.707031 15.207031 C 23.945313 14.929688 24.015625 14.546875 23.890625 14.203125 L 23.570313 13.25 C 24.191406 13.144531 24.792969 13.03125 25.375 12.910156 L 25.8125 14.21875 C 25.917969 14.570313 26.203125 14.835938 26.558594 14.910156 C 26.917969 14.988281 27.285156 14.863281 27.527344 14.589844 C 27.765625 14.3125 27.835938 13.929688 27.707031 13.589844 L 27.332031 12.460938 C 28.003906 12.289063 28.636719 12.109375 29.25 11.921875 L 29.613281 13 C 29.71875 13.351563 30.003906 13.617188 30.359375 13.691406 C 30.71875 13.769531 31.085938 13.644531 31.328125 13.371094 C 31.566406 13.09375 31.636719 12.710938 31.511719 12.371094 L 31.144531 11.28125 C 31.8125 11.035156 32.449219 10.785156 33.042969 10.527344 L 33.355469 11.464844 C 33.527344 11.988281 34.09375 12.273438 34.621094 12.097656 C 35.144531 11.921875 35.425781 11.355469 35.25 10.832031 L 34.859375 9.65625 C 35.039063 9.5625 35.226563 9.472656 35.398438 9.378906 C 37.542969 8.21875 39.097656 7.050781 40.214844 6.203125 C 40.773438 5.78125 41.226563 5.4375 41.554688 5.234375 C 41.882813 5.027344 42.074219 5 42 5 Z M 45.800781 10.21875 C 45.921875 10.769531 45.996094 11.359375 45.996094 12 C 45.996094 16.710938 42.960938 21.644531 37.515625 26.328125 C 34.828125 28.640625 33.542969 28.933594 31.984375 29.417969 C 30.425781 29.902344 28.632813 30.59375 25.910156 33.316406 C 23.972656 35.253906 23.523438 36.449219 23.171875 37.382813 C 22.824219 38.3125 22.542969 39.085938 20.488281 41.140625 C 19.269531 42.261719 18.34375 42.984375 17.527344 43.410156 C 16.707031 43.835938 15.996094 44 15 44 C 14.753906 44 13.679688 43.894531 12.640625 43.210938 C 11.824219 42.671875 10.96875 41.785156 10.386719 40.207031 C 10.730469 40.214844 11.109375 40.199219 11.511719 40.132813 C 13.082031 39.878906 15.023438 38.835938 16.226563 36.285156 C 17.09375 34.449219 18.277344 33.902344 19.8125 33.433594 C 21.351563 32.964844 23.234375 32.746094 24.832031 31.484375 C 27.46875 29.40625 30.765625 26.929688 32.558594 25.664063 C 33.792969 24.792969 34.203125 23.445313 34.511719 22.363281 C 34.820313 21.285156 35.09375 20.453125 35.433594 20.15625 C 35.785156 19.84375 36.441406 19.78125 37.503906 19.640625 C 38.570313 19.503906 39.980469 19.183594 41.183594 17.957031 C 42.34375 16.773438 43.507813 15.164063 44.417969 13.527344 C 45.042969 12.394531 45.542969 11.28125 45.800781 10.21875 Z " fill="#ffffff"/></g></svg>
