<?xml version="1.0" encoding="UTF-8"?>
<svg xmlns="http://www.w3.org/2000/svg" xmlns:xlink="http://www.w3.org/1999/xlink" viewBox="0 0 50 50" version="1.1" fill="#ffffff"><g id="surface1" fill="#ffffff"><path style=" " d="M 25 0 C 11.203125 0 0 11.203125 0 25 C 0 38.796875 11.203125 50 25 50 C 38.796875 50 50 38.796875 50 25 C 50 11.203125 38.796875 0 25 0 Z M 25 2 C 37.714844 2 48 12.285156 48 25 C 48 37.714844 37.714844 48 25 48 C 12.285156 48 2 37.714844 2 25 C 2 12.285156 12.285156 2 25 2 Z M 24.90625 4.96875 C 24.863281 4.976563 24.820313 4.988281 24.78125 5 C 24.316406 5.105469 23.988281 5.523438 24 6 L 24 22.1875 C 22.839844 22.601563 22 23.699219 22 25 C 22 25.453125 22.132813 25.863281 22.3125 26.25 L 16.28125 32.28125 C 15.882813 32.679688 15.882813 33.320313 16.28125 33.71875 C 16.679688 34.117188 17.320313 34.117188 17.71875 33.71875 L 23.75 27.6875 C 24.136719 27.867188 24.546875 28 25 28 C 26.65625 28 28 26.65625 28 25 C 28 23.699219 27.160156 22.601563 26 22.1875 L 26 6 C 26.011719 5.710938 25.894531 5.433594 25.6875 5.238281 C 25.476563 5.039063 25.191406 4.941406 24.90625 4.96875 Z " fill="#ffffff"/></g></svg>
