<svg width="147" height="100" viewBox="0 0 147 100" xmlns="http://www.w3.org/2000/svg"><title>icons8-technology_items</title><path d="M20.515 0C14.035 0 8.792 5.262 8.792 11.765V76.47c0 2.148.653 4.147 1.649 5.882H2.656A2.926 2.926 0 0 0 0 85.294C0 93.371 6.606 100 14.654 100H131.88c8.048 0 14.654-6.63 14.654-14.706a2.942 2.942 0 0 0-2.931-2.941h-7.51c.996-1.735 1.649-3.734 1.649-5.882V11.765C137.743 5.262 132.499 0 126.02 0H20.515zm0 5.882H126.02c3.491 0 5.861 2.379 5.861 5.883V76.47c0 3.504-2.37 5.882-5.861 5.882H20.515c-3.492 0-5.861-2.378-5.861-5.882V11.765c0-3.504 2.37-5.883 5.86-5.883zm2.381 5.883a2.938 2.938 0 0 0-2.381 2.94V73.53a2.942 2.942 0 0 0 2.93 2.942h99.644a2.942 2.942 0 0 0 2.93-2.942V14.706a2.942 2.942 0 0 0-2.93-2.941H22.896zm3.48 5.882h93.782v52.941H26.376v-52.94zM7.052 88.235h132.43c-1.293 3.263-3.892 5.883-7.6 5.883H14.653c-3.71 0-6.308-2.62-7.602-5.883z"/></svg>