<svg xmlns="http://www.w3.org/2000/svg" viewBox="0 0 50 50" fill="#fff"><path d="M42 3c-.617 0-1.063.254-1.516.54-.449.288-.922.647-1.476 1.07-1.113.84-2.555 1.921-4.563 3.011-.074.04-.156.078-.226.117a1.003 1.003 0 0 0-1.746-.168.997.997 0 0 0-.118.895l.051.156a30.41 30.41 0 0 1-1.89.762l-.004-.016a1.006 1.006 0 0 0-.992-.695A1.002 1.002 0 0 0 28.614 10l.007.023a41.59 41.59 0 0 1-1.922.54 1.003 1.003 0 0 0-.98-.672.999.999 0 0 0-.953 1.11c-.594.116-1.203.226-1.836.327l-.04-.125a.998.998 0 0 0-.992-.691.981.981 0 0 0-.718.343 1.02 1.02 0 0 0-.239.762c-.617.07-1.296.113-1.957.168l-.035-.101a1 1 0 0 0-1.95.242c-.964.047-1.956.074-2.999.074a4.34 4.34 0 0 0-2.723.953c-.73.586-1.277 1.442-1.277 2.438 0 1.078.559 2.093 1.457 2.664.633.402 1.547.511 2.434.664-.137 1.894-.66 3.183-1.48 4.02-.938.956-2.25 1.503-3.673 1.886-1.422.387-2.91.59-4.18 1.016-.636.21-1.238.48-1.734.953A2.773 2.773 0 0 0 2 28.562c0 2.66 1.637 4.165 2.813 5.579.519.629 1.39 2.004 2.078 3.175.664 1.125 1.132 1.989 1.18 2.07.636 2.837 2.054 4.563 3.476 5.497C12.997 45.836 14.352 46 15 46c1.242 0 2.367-.254 3.453-.816 1.082-.563 2.125-1.407 3.402-2.579l.032-.03c2.207-2.208 2.793-3.505 3.16-4.493.367-.984.492-1.566 2.277-3.352 2.551-2.55 3.75-2.933 5.254-3.402 1.504-.469 3.36-1.008 6.238-3.484 5.696-4.895 9.18-10.285 9.18-15.844 0-4.945-3.441-7.84-3.559-7.938C43.782 3.406 42.926 3 42 3zm0 2c.371 0 .68.117.973.41a.72.72 0 0 0 .09.098c.082.097.164.195.246.32.394.617.691 1.64.691 2.988 0 .746-.512 2.258-1.332 3.743-.824 1.48-1.922 2.988-2.914 4-.809.824-1.566.976-2.508 1.101-.941.125-2.129.11-3.137.996-1.023.899-1.23 2.145-1.52 3.16-.292 1.02-.593 1.797-1.183 2.215-1.851 1.305-5.148 3.782-7.812 5.883-1.051.828-2.617 1.074-4.36 1.606-1.746.53-3.683 1.52-4.816 3.914-.957 2.027-2.176 2.554-3.227 2.722-.886.145-1.363-.027-1.566-.086-.168-.3-.445-.808-1.008-1.77-.71-1.202-1.55-2.573-2.265-3.437C5.055 31.301 4 30.433 4 28.563c0-.293.047-.368.207-.52.16-.156.496-.344.984-.508.98-.324 2.493-.55 4.07-.976 1.579-.426 3.266-1.079 4.579-2.418C15.152 22.8 16 20.793 16 18c0-.52-.395-.95-.91-.996-1.266-.11-2.13-.363-2.559-.637-.433-.273-.531-.441-.531-.976 0-.243.16-.582.531-.88.367-.3.914-.511 1.469-.511 1.246 0 2.438-.035 3.578-.094l.473 1.41a1.001 1.001 0 0 0 1.898-.632l-.308-.926c.664-.059 1.293-.137 1.922-.211l.43 1.293c.105.348.39.613.745.687.36.078.727-.047.969-.32a1.01 1.01 0 0 0 .184-1.004l-.32-.953a49.77 49.77 0 0 0 1.804-.34l.438 1.309c.105.351.39.617.746.691a.994.994 0 1 0 1.148-1.32l-.375-1.13a42.812 42.812 0 0 0 1.918-.538L29.613 13a1.005 1.005 0 0 0 1.716.371c.237-.277.308-.66.183-1l-.367-1.09a36.316 36.316 0 0 0 1.898-.754l.312.938a.998.998 0 1 0 1.895-.633l-.39-1.176c.18-.094.367-.183.538-.277 2.145-1.16 3.7-2.328 4.817-3.176.558-.422 1.012-.766 1.34-.969.328-.207.52-.234.445-.234zm3.8 5.219c.122.55.196 1.14.196 1.781 0 4.71-3.035 9.645-8.48 14.328-2.688 2.313-3.973 2.606-5.532 3.09-1.558.484-3.351 1.176-6.074 3.898-1.937 1.938-2.387 3.133-2.738 4.067-.348.93-.629 1.703-2.684 3.758-1.218 1.12-2.144 1.843-2.96 2.27-.821.425-1.532.589-2.528.589-.246 0-1.32-.105-2.36-.79-.816-.538-1.671-1.425-2.253-3.003.343.008.722-.008 1.125-.074 1.57-.254 3.511-1.297 4.715-3.848.867-1.836 2.05-2.383 3.585-2.851 1.54-.47 3.422-.688 5.02-1.95 2.637-2.078 5.934-4.554 7.727-5.82 1.234-.871 1.644-2.219 1.953-3.3.308-1.079.582-1.91.922-2.208.351-.312 1.007-.375 2.07-.515 1.066-.137 2.476-.457 3.68-1.684 1.16-1.184 2.324-2.793 3.234-4.43.625-1.132 1.125-2.246 1.383-3.308z"/></svg>