<svg xmlns="http://www.w3.org/2000/svg" width="50" height="44" viewBox="0 0 50 44"><path fill="#212A34" d="M13.188 0C10.96 0 8.09 1.64 5.561 4.844 3.035 8.047 1 12.894 1 19.5c0 3.07.984 6.594 2.813 9.438a13.882 13.882 0 0 0 1.593 2c-2.265 2.894-4.125 5.093-4.125 5.093a1.001 1.001 0 0 0 .43 1.79c.394.066.793-.11 1.008-.446 0 0 1.883-2.223 4.187-5.156 1.442 1.07 3.098 1.781 5 1.781 3.106 0 6.047-1.527 8.594-3.688.465-.394.84-.91 1.281-1.343C22.563 29.57 23.465 30 24.5 30c1.582 0 2.977-.79 4.188-1.813 1.21-1.023 2.292-2.316 3.25-3.593.957-1.278 1.8-2.516 2.5-3.407.3-.386.566-.636.78-.843.067.62.032 1.605-.03 2.593-.063.989-.16 1.989-.157 2.813 0 .414.028.777.125 1.156.051.192.094.395.282.625.187.23.597.469.968.469 1.215 0 2.149-.707 2.969-1.531.82-.824 1.605-1.84 2.438-2.813C43.477 21.711 45.273 20 48 20c.36.004.695-.184.879-.496a1.01 1.01 0 0 0 0-1.008c-.184-.312-.52-.5-.879-.496-3.574 0-5.957 2.29-7.719 4.344-.879 1.027-1.64 2.011-2.312 2.687-.399.403-.645.418-.938.563.008-.668.098-1.578.157-2.532.062-1.011.09-2.027 0-2.906-.047-.441-.098-.867-.313-1.281-.215-.414-.77-.875-1.375-.875-.668 0-1.105.34-1.5.688a9.14 9.14 0 0 0-1.156 1.25c-.77.984-1.614 2.246-2.532 3.468-.917 1.223-1.898 2.43-2.906 3.282C26.398 27.538 25.418 28 24.5 28a2.41 2.41 0 0 1-1.375-.406c1.418-1.614 2.723-3.313 3.75-5.094 1.637-2.836 2.707-5.645 2.969-7.938.129-1.144.09-2.21-.375-3.093C29.004 10.586 28 10 26.906 10c-2.199 0-4.218 1.438-5.656 3.563-1.438 2.124-2.344 5.007-2.344 8.25 0 2.105.45 4.046 1.375 5.562.04.066.114.094.157.156-.418.418-.813.91-1.25 1.282C16.867 30.776 14.351 32 11.905 32c-1.402 0-2.652-.55-3.781-1.375.926-1.23 1.734-2.156 2.719-3.625C14.89 20.965 19 13.238 19 6.187c0-.796-.082-2.25-.875-3.625C17.332 1.188 15.675 0 13.187 0zm0 2c1.914 0 2.683.688 3.187 1.563.504.874.625 2.019.625 2.624 0 6.25-3.89 13.797-7.844 19.688-.89 1.328-1.594 2.148-2.437 3.281-.403-.453-.871-.773-1.219-1.312C3.906 25.364 3 22.129 3 19.5 3 13.305 4.91 8.91 7.156 6.062 9.402 3.216 12.113 2 13.188 2zm13.718 10c.532 0 .614.086.782.406.167.32.292.989.187 1.906-.207 1.833-1.21 4.524-2.75 7.188-.91 1.574-2.023 3.098-3.25 4.531-.586-1.093-.969-2.562-.969-4.218 0-2.86.813-5.375 2-7.125 1.188-1.75 2.7-2.688 4-2.688zM0 42v2h50v-2H0z"/></svg>