<svg xmlns="http://www.w3.org/2000/svg" width="50" height="50" viewBox="0 0 50 50"><path fill="#212A34" d="M48.906 0a.99.99 0 0 0-.375.125l-48 26a.996.996 0 0 0-.52.957c.036.395.301.73.676.855l13.626 4.47L13 45.906a.995.995 0 0 0 .594 1.034.984.984 0 0 0 1.156-.285l8.594-9.718 12.968 12.78a.99.99 0 0 0 .965.247.985.985 0 0 0 .692-.715l12-48A.99.99 0 0 0 48.906 0zM47.47 2.938L36.437 47.062 24.595 35.376l17.218-23.781a.994.994 0 1 0-1.437-1.375L15.219 30.594 3.5 26.78 47.469 2.938zM35.78 16.5L22.656 34.719a.949.949 0 0 0-.093.125l-.063.062a1.302 1.302 0 0 0-.063.094l-7.156 8.031 1.063-10.812L35.78 16.5z"/></svg>