<svg xmlns="http://www.w3.org/2000/svg" width="109" height="100" viewBox="0 0 109 100">
  <path fill="#212A34" d="M21.3315217,0 C20.2955174,0.195313043 19.5482348,1.11243261 19.5652174,2.17391304 L19.5652174,34.7826087 L8.69565217,34.7826087 L8.69565217,39.1304348 L0,39.1304348 L0,52.173913 L8.69565217,52.173913 L8.69565217,89.1304348 C8.69565217,95.1086957 13.5869565,100 19.5652174,100 L89.1304348,100 C95.1086957,100 100,95.1086957 100,89.1304348 L100,52.173913 L108.695652,52.173913 L108.695652,39.1304348 L100,39.1304348 L100,34.7826087 L89.1304348,34.7826087 L89.1304348,2.17391304 C89.1304348,0.976563043 88.1538717,0 86.9565217,0 L21.7391304,0 C21.6711957,0 21.6032609,0 21.5353261,0 C21.4673913,0 21.3994565,0 21.3315217,0 Z M23.9130435,4.34782609 L84.7826087,4.34782609 L84.7826087,34.7826087 L66.3043478,34.7826087 C62.1263587,34.7826087 58.6956522,38.2133152 58.6956522,42.3913043 C58.6956522,46.5692935 62.1263587,50 66.3043478,50 L71.7391304,50 C72.9704478,50 73.9130435,50.9425957 73.9130435,52.173913 C73.9130435,53.4052304 72.9704478,54.3478261 71.7391304,54.3478261 L36.9565217,54.3478261 C35.7252043,54.3478261 34.7826087,53.4052304 34.7826087,52.173913 C34.7826087,50.9425957 35.7252043,50 36.9565217,50 L42.3913043,50 C46.5692935,50 50,46.5692935 50,42.3913043 C50,38.2133152 46.5692935,34.7826087 42.3913043,34.7826087 L24.048913,34.7826087 C24.0064543,34.7826087 23.9555022,34.7826087 23.9130435,34.7826087 L23.9130435,4.34782609 Z M34.375,13.0434783 C33.17765,13.1538717 32.2944978,14.2238457 32.4048913,15.4211957 C32.5152848,16.6185457 33.5852587,17.5016978 34.7826087,17.3913043 L73.9130435,17.3913043 C74.6942935,17.3997957 75.4245935,16.992187 75.8237087,16.3128391 C76.2143348,15.6334913 76.2143348,14.8012913 75.8237087,14.1219435 C75.4245935,13.4425957 74.6942935,13.034987 73.9130435,13.0434783 L34.7826087,13.0434783 C34.7146739,13.0434783 34.6467391,13.0434783 34.5788043,13.0434783 C34.5108696,13.0434783 34.4429348,13.0434783 34.375,13.0434783 Z M34.375,21.7391304 C33.17765,21.8495239 32.2944978,22.9194978 32.4048913,24.1168478 C32.5152848,25.3141978 33.5852587,26.19735 34.7826087,26.0869565 L63.0434783,26.0869565 C63.8247283,26.0954478 64.5550283,25.6878391 64.9541435,25.0084913 C65.3447696,24.3291435 65.3447696,23.4969435 64.9541435,22.8175957 C64.5550283,22.1382478 63.8247283,21.7306391 63.0434783,21.7391304 L34.7826087,21.7391304 C34.7146739,21.7391304 34.6467391,21.7391304 34.5788043,21.7391304 C34.5108696,21.7391304 34.4429348,21.7391304 34.375,21.7391304 Z M13.0434783,39.1304348 L42.3913043,39.1304348 C44.2170522,39.1304348 45.6521739,40.5655565 45.6521739,42.3913043 C45.6521739,44.2170522 44.2170522,45.6521739 42.3913043,45.6521739 L36.9565217,45.6521739 C33.3814543,45.6521739 30.4347826,48.5988457 30.4347826,52.173913 C30.4347826,55.7489804 33.3814543,58.6956522 36.9565217,58.6956522 L71.7391304,58.6956522 C75.3141978,58.6956522 78.2608696,55.7489804 78.2608696,52.173913 C78.2608696,48.5988457 75.3141978,45.6521739 71.7391304,45.6521739 L66.3043478,45.6521739 C64.4786,45.6521739 63.0434783,44.2170522 63.0434783,42.3913043 C63.0434783,40.5655565 64.4786,39.1304348 66.3043478,39.1304348 L95.6521739,39.1304348 L95.6521739,89.1304348 C95.6521739,92.7564543 92.7564543,95.6521739 89.1304348,95.6521739 L19.5652174,95.6521739 C15.9391978,95.6521739 13.0434783,92.7564543 13.0434783,89.1304348 L13.0434783,39.1304348 Z M4.34782609,43.4782609 L8.69565217,43.4782609 L8.69565217,47.826087 L4.34782609,47.826087 L4.34782609,43.4782609 Z M100,43.4782609 L104.347826,43.4782609 L104.347826,47.826087 L100,47.826087 L100,43.4782609 Z M23.9130435,67.3913043 C22.7156935,67.3913043 21.7391304,68.3678674 21.7391304,69.5652174 C21.7391304,70.7625674 22.7156935,71.7391304 23.9130435,71.7391304 C25.1103935,71.7391304 26.0869565,70.7625674 26.0869565,69.5652174 C26.0869565,68.3678674 25.1103935,67.3913043 23.9130435,67.3913043 Z M32.6086957,67.3913043 C31.4113457,67.3913043 30.4347826,68.3678674 30.4347826,69.5652174 C30.4347826,70.7625674 31.4113457,71.7391304 32.6086957,71.7391304 C33.8060457,71.7391304 34.7826087,70.7625674 34.7826087,69.5652174 C34.7826087,68.3678674 33.8060457,67.3913043 32.6086957,67.3913043 Z M41.3043478,67.3913043 C40.1069978,67.3913043 39.1304348,68.3678674 39.1304348,69.5652174 C39.1304348,70.7625674 40.1069978,71.7391304 41.3043478,71.7391304 C42.5016978,71.7391304 43.4782609,70.7625674 43.4782609,69.5652174 C43.4782609,68.3678674 42.5016978,67.3913043 41.3043478,67.3913043 Z M50,67.3913043 C48.80265,67.3913043 47.826087,68.3678674 47.826087,69.5652174 C47.826087,70.7625674 48.80265,71.7391304 50,71.7391304 C51.19735,71.7391304 52.173913,70.7625674 52.173913,69.5652174 C52.173913,68.3678674 51.19735,67.3913043 50,67.3913043 Z M58.6956522,67.3913043 C57.4983022,67.3913043 56.5217391,68.3678674 56.5217391,69.5652174 C56.5217391,70.7625674 57.4983022,71.7391304 58.6956522,71.7391304 C59.8930022,71.7391304 60.8695652,70.7625674 60.8695652,69.5652174 C60.8695652,68.3678674 59.8930022,67.3913043 58.6956522,67.3913043 Z M67.3913043,67.3913043 C66.1939543,67.3913043 65.2173913,68.3678674 65.2173913,69.5652174 C65.2173913,70.7625674 66.1939543,71.7391304 67.3913043,71.7391304 C68.5886543,71.7391304 69.5652174,70.7625674 69.5652174,69.5652174 C69.5652174,68.3678674 68.5886543,67.3913043 67.3913043,67.3913043 Z M76.0869565,67.3913043 C74.8896065,67.3913043 73.9130435,68.3678674 73.9130435,69.5652174 C73.9130435,70.7625674 74.8896065,71.7391304 76.0869565,71.7391304 C77.2843065,71.7391304 78.2608696,70.7625674 78.2608696,69.5652174 C78.2608696,68.3678674 77.2843065,67.3913043 76.0869565,67.3913043 Z M84.7826087,67.3913043 C83.5852587,67.3913043 82.6086957,68.3678674 82.6086957,69.5652174 C82.6086957,70.7625674 83.5852587,71.7391304 84.7826087,71.7391304 C85.9799587,71.7391304 86.9565217,70.7625674 86.9565217,69.5652174 C86.9565217,68.3678674 85.9799587,67.3913043 84.7826087,67.3913043 Z M28.2608696,76.0869565 C27.0635196,76.0869565 26.0869565,77.0635196 26.0869565,78.2608696 C26.0869565,79.4582196 27.0635196,80.4347826 28.2608696,80.4347826 C29.4582196,80.4347826 30.4347826,79.4582196 30.4347826,78.2608696 C30.4347826,77.0635196 29.4582196,76.0869565 28.2608696,76.0869565 Z M36.9565217,76.0869565 C35.7591717,76.0869565 34.7826087,77.0635196 34.7826087,78.2608696 C34.7826087,79.4582196 35.7591717,80.4347826 36.9565217,80.4347826 C38.1538717,80.4347826 39.1304348,79.4582196 39.1304348,78.2608696 C39.1304348,77.0635196 38.1538717,76.0869565 36.9565217,76.0869565 Z M45.6521739,76.0869565 C44.4548239,76.0869565 43.4782609,77.0635196 43.4782609,78.2608696 C43.4782609,79.4582196 44.4548239,80.4347826 45.6521739,80.4347826 C46.8495239,80.4347826 47.826087,79.4582196 47.826087,78.2608696 C47.826087,77.0635196 46.8495239,76.0869565 45.6521739,76.0869565 Z M54.3478261,76.0869565 C53.1504761,76.0869565 52.173913,77.0635196 52.173913,78.2608696 C52.173913,79.4582196 53.1504761,80.4347826 54.3478261,80.4347826 C55.5451761,80.4347826 56.5217391,79.4582196 56.5217391,78.2608696 C56.5217391,77.0635196 55.5451761,76.0869565 54.3478261,76.0869565 Z M63.0434783,76.0869565 C61.8461283,76.0869565 60.8695652,77.0635196 60.8695652,78.2608696 C60.8695652,79.4582196 61.8461283,80.4347826 63.0434783,80.4347826 C64.2408283,80.4347826 65.2173913,79.4582196 65.2173913,78.2608696 C65.2173913,77.0635196 64.2408283,76.0869565 63.0434783,76.0869565 Z M71.7391304,76.0869565 C70.5417804,76.0869565 69.5652174,77.0635196 69.5652174,78.2608696 C69.5652174,79.4582196 70.5417804,80.4347826 71.7391304,80.4347826 C72.9364804,80.4347826 73.9130435,79.4582196 73.9130435,78.2608696 C73.9130435,77.0635196 72.9364804,76.0869565 71.7391304,76.0869565 Z M80.4347826,76.0869565 C79.2374326,76.0869565 78.2608696,77.0635196 78.2608696,78.2608696 C78.2608696,79.4582196 79.2374326,80.4347826 80.4347826,80.4347826 C81.6321326,80.4347826 82.6086957,79.4582196 82.6086957,78.2608696 C82.6086957,77.0635196 81.6321326,76.0869565 80.4347826,76.0869565 Z M34.7826087,84.7826087 C33.5852587,84.7826087 32.6086957,85.7591717 32.6086957,86.9565217 C32.6086957,88.1538717 33.5852587,89.1304348 34.7826087,89.1304348 L73.9130435,89.1304348 C75.1103935,89.1304348 76.0869565,88.1538717 76.0869565,86.9565217 C76.0869565,85.7591717 75.1103935,84.7826087 73.9130435,84.7826087 L34.7826087,84.7826087 Z"/>
</svg>
