<?xml version="1.0" encoding="UTF-8" standalone="no"?>
<svg width="146px" height="100px" viewBox="0 0 146 100" version="1.1" xmlns="http://www.w3.org/2000/svg" xmlns:xlink="http://www.w3.org/1999/xlink">
    <!-- Generator: Sketch 46.2 (44496) - http://www.bohemiancoding.com/sketch -->
    <title>icons8-technology_items</title>
    <desc>Created with Sketch.</desc>
    <defs></defs>
    <g id="Page-1" stroke="none" stroke-width="1" fill="none" fill-rule="evenodd">
        <g id="Artboard" transform="translate(-95.000000, -129.000000)" fill-rule="nonzero" fill="#000000">
            <g id="icons8-technology_items" transform="translate(95.000000, 129.000000)">
                <path d="M20.4400722,0 C13.9841399,0 8.76007893,5.26195 8.76007893,11.7647059 L8.76007893,76.4705882 C8.76007893,78.6190265 9.41023407,80.6181059 10.402578,82.3529412 L2.92008229,82.3529412 C2.82883234,82.3529412 2.73758239,82.3529412 2.64633244,82.3529412 C1.14070831,82.4908088 -0.0113222784,83.7660853 8.39650737e-05,85.2941176 C8.39650737e-05,93.3708647 6.5814857,100 14.6000756,100 L131.400008,100 C139.418598,100 146,93.3708647 146,85.2941176 C146,83.6741735 144.688281,82.3529412 143.080002,82.3529412 L135.597506,82.3529412 C136.58985,80.6181059 137.240005,78.6190265 137.240005,76.4705882 L137.240005,11.7647059 C137.240005,5.26195 132.015947,0 125.560012,0 L20.4400722,0 Z M20.4400722,5.88235294 L125.560012,5.88235294 C129.038915,5.88235294 131.400008,8.26057059 131.400008,11.7647059 L131.400008,76.4705882 C131.400008,79.9747235 129.038915,82.3529412 125.560012,82.3529412 L20.4400722,82.3529412 C16.9611687,82.3529412 14.6000756,79.9747235 14.6000756,76.4705882 L14.6000756,11.7647059 C14.6000756,8.26057059 16.9611687,5.88235294 20.4400722,5.88235294 Z M22.8125708,11.7647059 C21.4210106,12.0289529 20.4172612,13.2697618 20.4400722,14.7058824 L20.4400722,73.5294118 C20.4400722,75.1493559 21.7517909,76.4705882 23.3600705,76.4705882 L122.640013,76.4705882 C124.248293,76.4705882 125.560012,75.1493559 125.560012,73.5294118 L125.560012,14.7058824 C125.560012,13.0859382 124.248293,11.7647059 122.640013,11.7647059 L23.3600705,11.7647059 C23.2688206,11.7647059 23.1775706,11.7647059 23.0863207,11.7647059 C22.9950707,11.7647059 22.9038208,11.7647059 22.8125708,11.7647059 Z M26.2800689,17.6470588 L119.720015,17.6470588 L119.720015,70.5882353 L26.2800689,70.5882353 L26.2800689,17.6470588 Z M7.02632992,88.2352941 L138.973754,88.2352941 C137.684849,91.4981618 135.095631,94.1176471 131.400008,94.1176471 L14.6000756,94.1176471 C10.9044527,94.1176471 8.3152347,91.4981618 7.02632992,88.2352941 Z" id="Shape"></path>
            </g>
        </g>
    </g>
</svg>