<svg xmlns="http://www.w3.org/2000/svg" width="109" height="100" viewBox="0 0 109 100"><path fill="#212A34" d="M21.332 0a2.174 2.174 0 0 0-1.767 2.174v32.609H8.695v4.347H0v13.044h8.696V89.13c0 5.979 4.891 10.87 10.87 10.87H89.13c5.98 0 10.87-4.891 10.87-10.87V52.174h8.696V39.13H100v-4.347H89.13V2.173A2.178 2.178 0 0 0 86.957 0H21.332zm2.581 4.348h60.87v30.435H66.304c-4.178 0-7.608 3.43-7.608 7.608 0 4.178 3.43 7.609 7.608 7.609h5.435c1.231 0 2.174.943 2.174 2.174 0 1.231-.943 2.174-2.174 2.174H36.957c-1.232 0-2.174-.943-2.174-2.174 0-1.231.942-2.174 2.174-2.174h5.434C46.57 50 50 46.57 50 42.391c0-4.178-3.43-7.608-7.609-7.608H23.913V4.348zm10.462 8.695a2.188 2.188 0 0 0-1.97 2.378 2.188 2.188 0 0 0 2.378 1.97h39.13a2.184 2.184 0 0 0 1.91-1.078 2.193 2.193 0 0 0 0-2.191 2.187 2.187 0 0 0-1.91-1.079H34.375zm0 8.696a2.188 2.188 0 0 0-1.97 2.378 2.188 2.188 0 0 0 2.378 1.97h28.26c.782.008 1.512-.4 1.911-1.079.39-.679.39-1.511 0-2.19a2.187 2.187 0 0 0-1.91-1.079h-28.67zM13.043 39.13h29.348a3.23 3.23 0 0 1 3.261 3.261 3.23 3.23 0 0 1-3.26 3.261h-5.435c-3.576 0-6.522 2.947-6.522 6.522s2.946 6.522 6.522 6.522h34.782c3.575 0 6.522-2.947 6.522-6.522s-2.947-6.522-6.522-6.522h-5.435a3.23 3.23 0 0 1-3.26-3.26 3.23 3.23 0 0 1 3.26-3.262h29.348v50a6.491 6.491 0 0 1-6.522 6.522H19.565a6.491 6.491 0 0 1-6.522-6.522v-50zm-8.695 4.348h4.348v4.348H4.348v-4.348zm95.652 0h4.348v4.348H100v-4.348zM23.913 67.391a2.178 2.178 0 0 0-2.174 2.174c0 1.198.977 2.174 2.174 2.174a2.178 2.178 0 0 0 2.174-2.174 2.178 2.178 0 0 0-2.174-2.174zm8.696 0a2.178 2.178 0 0 0-2.174 2.174c0 1.198.976 2.174 2.174 2.174a2.178 2.178 0 0 0 2.174-2.174 2.178 2.178 0 0 0-2.174-2.174zm8.695 0a2.178 2.178 0 0 0-2.174 2.174c0 1.198.977 2.174 2.174 2.174a2.178 2.178 0 0 0 2.174-2.174 2.178 2.178 0 0 0-2.174-2.174zm8.696 0a2.178 2.178 0 0 0-2.174 2.174c0 1.198.977 2.174 2.174 2.174a2.178 2.178 0 0 0 2.174-2.174A2.178 2.178 0 0 0 50 67.391zm8.696 0a2.178 2.178 0 0 0-2.174 2.174c0 1.198.976 2.174 2.174 2.174a2.178 2.178 0 0 0 2.174-2.174 2.178 2.178 0 0 0-2.174-2.174zm8.695 0a2.178 2.178 0 0 0-2.174 2.174c0 1.198.977 2.174 2.174 2.174a2.178 2.178 0 0 0 2.174-2.174 2.178 2.178 0 0 0-2.174-2.174zm8.696 0a2.178 2.178 0 0 0-2.174 2.174c0 1.198.977 2.174 2.174 2.174a2.178 2.178 0 0 0 2.174-2.174 2.178 2.178 0 0 0-2.174-2.174zm8.696 0a2.178 2.178 0 0 0-2.174 2.174c0 1.198.976 2.174 2.174 2.174a2.178 2.178 0 0 0 2.174-2.174 2.178 2.178 0 0 0-2.174-2.174zM28.26 76.087a2.178 2.178 0 0 0-2.174 2.174c0 1.197.977 2.174 2.174 2.174a2.178 2.178 0 0 0 2.174-2.174 2.178 2.178 0 0 0-2.174-2.174zm8.696 0a2.178 2.178 0 0 0-2.174 2.174c0 1.197.976 2.174 2.174 2.174a2.178 2.178 0 0 0 2.173-2.174 2.178 2.178 0 0 0-2.173-2.174zm8.695 0a2.178 2.178 0 0 0-2.174 2.174c0 1.197.977 2.174 2.174 2.174a2.178 2.178 0 0 0 2.174-2.174 2.178 2.178 0 0 0-2.174-2.174zm8.696 0a2.178 2.178 0 0 0-2.174 2.174c0 1.197.976 2.174 2.174 2.174a2.178 2.178 0 0 0 2.174-2.174 2.178 2.178 0 0 0-2.174-2.174zm8.695 0a2.178 2.178 0 0 0-2.173 2.174c0 1.197.976 2.174 2.173 2.174a2.178 2.178 0 0 0 2.174-2.174 2.178 2.178 0 0 0-2.174-2.174zm8.696 0a2.178 2.178 0 0 0-2.174 2.174c0 1.197.977 2.174 2.174 2.174a2.178 2.178 0 0 0 2.174-2.174 2.178 2.178 0 0 0-2.174-2.174zm8.696 0a2.178 2.178 0 0 0-2.174 2.174c0 1.197.976 2.174 2.174 2.174a2.178 2.178 0 0 0 2.174-2.174 2.178 2.178 0 0 0-2.174-2.174zm-45.652 8.696a2.178 2.178 0 0 0-2.174 2.174c0 1.197.976 2.173 2.174 2.173h39.13a2.178 2.178 0 0 0 2.174-2.173 2.178 2.178 0 0 0-2.174-2.174h-39.13z"/></svg>