<?xml version="1.0" encoding="UTF-8"?>
<svg xmlns="http://www.w3.org/2000/svg" xmlns:xlink="http://www.w3.org/1999/xlink" viewBox="0 0 50 50" version="1.1" fill="#ffffff"><g id="surface1" fill="#ffffff"><path style=" " d="M 22 0 C 9.863281 0 0 9.863281 0 22 L 0 23 L 23 23 L 23 0 Z M 21 2.09375 L 21 21 L 2.09375 21 C 2.609375 10.757813 10.757813 2.609375 21 2.09375 Z M 28 6 C 27.011719 6 26.050781 6.0625 25.09375 6.1875 L 25.34375 8.1875 C 26.210938 8.074219 27.097656 8 28 8 C 39.058594 8 48 16.941406 48 28 C 48 39.058594 39.058594 48 28 48 C 16.941406 48 8 39.058594 8 28 C 8 27.050781 8.058594 26.128906 8.1875 25.21875 L 6.21875 24.9375 C 6.078125 25.941406 6 26.957031 6 28 C 6 40.136719 15.863281 50 28 50 C 40.136719 50 50 40.136719 50 28 C 50 15.863281 40.136719 6 28 6 Z " fill="#ffffff"/></g></svg>
