<svg xmlns="http://www.w3.org/2000/svg" viewBox="0 0 50 50"><path d="M10 0C6.691 0 4 2.691 4 6s2.691 6 6 6 6-2.691 6-6-2.691-6-6-6zm27 0c-3.309 0-6 2.691-6 6s2.691 6 6 6 6-2.691 6-6-2.691-6-6-6zM5.5 13A5.508 5.508 0 0 0 0 18.5V33c0 1.105.898 2 2 2 1.102 0 2-.895 2-2V21c0-.27.23-.5.5-.5s.5.23.5.5v26.313C5 48.874 5.84 50 7.406 50 8.886 50 10 48.852 10 47.312V33.688c0-.278.223-.5.5-.5s.5.222.5.5v13.906c.004.008.027-.008.031 0 .137 1.383 1.18 2.406 2.563 2.406C15.156 50 16 48.875 16 47.312V21c0-.27.23-.5.5-.5s.5.23.5.5v12c0 1.105.898 2 2 2 1.102 0 2-.895 2-2V18.5c0-3.031-2.469-5.5-5.5-5.5zM32 13c-1.39-.094-3.746.898-4.688 3.781L23.25 29.375a2.012 2.012 0 0 0 1.281 2.531 2.01 2.01 0 0 0 2.532-1.281l3.062-9.281a.494.494 0 0 1 .625-.313.514.514 0 0 1 .344.563c-.02.035-.051.054-.063.093L27.75 31.5l-1.063 3.156.094-.156c-.101.488-.14 1.07.25 1.656.035.055.11.11.157.157.261.257.789.687 1.5.687H31v10.313c0 1.562.84 2.687 2.406 2.687C34.886 50 36 48.852 36 47.312V37h1v10.594c.004.008.027-.008.031 0 .137 1.383 1.18 2.406 2.563 2.406C41.156 50 42 48.875 42 47.312V37h2.313c.71 0 1.242-.43 1.5-.688a.954.954 0 0 0 .124-.156c.403-.605.36-1.218.25-1.718l.126.218-2.657-7.843-1.718-5.125c-.008-.024-.02-.04-.032-.063a.507.507 0 0 1 .344-.594.494.494 0 0 1 .625.313l3.094 9.281a1.977 1.977 0 0 0 2.5 1.281 2.012 2.012 0 0 0 1.281-2.531l-4.063-12.594C44.748 13.898 42.392 12.906 41 13z"/></svg>