<svg xmlns="http://www.w3.org/2000/svg" viewBox="0 0 50 50" fill="#fff"><path d="M26.5 2A5.513 5.513 0 0 0 21 7.5c0 3.027 2.473 5.5 5.5 5.5S32 10.527 32 7.5 29.527 2 26.5 2zm0 2C28.445 4 30 5.555 30 7.5S28.445 11 26.5 11A3.484 3.484 0 0 1 23 7.5C23 5.555 24.555 4 26.5 4zM17 12c-.71 0-1.328.3-1.84.719a.964.964 0 0 0-.398.258l-6.38 6.878a.989.989 0 0 0-.218.383C7.473 21.152 7 22.258 7 23.5c0 3.027 2.473 5.5 5.5 5.5.914 0 1.766-.234 2.52-.633.058.774.296 1.496.668 2.133l-1.88 6.031-4.07 5.824a.996.996 0 0 0-.18.594c-.26.485-.558.957-.558 1.551 0 1.922 1.578 3.5 3.5 3.5 1.086 0 1.988-.566 2.629-1.344a.967.967 0 0 0 .344-.32l4.52-6.8a1.15 1.15 0 0 0 .105-.208l1.312-3.578L24 37.96v6.54c0 1.922 1.578 3.5 3.5 3.5s3.5-1.578 3.5-3.5V35c0-.77-.305-1.469-.781-2a.812.812 0 0 0-.106-.125l-4.996-5.156 1.445-5.172 3.454 2.691c.175.137.39.211.613.215.433.242.84.547 1.371.547.34 0 .625-.133.922-.234h.004a.974.974 0 0 0 .469-.11L36 24.332V47c-.004.36.184.695.496.879.313.18.695.18 1.008 0 .312-.184.5-.52.496-.879V23.312l.992-.5C40.156 22.398 41 21.297 41 20c0-1.645-1.355-3-3-3v-3.703a1.003 1.003 0 0 0-1.016-1.012.999.999 0 0 0-.984 1.012v4.36l-3.824 1.823-5.051-4.601-.016-.012c-.007-.004-.011-.012-.02-.015l-.058-.047-.004.02c-.25-.231-.574-.348-.886-.481a.981.981 0 0 0-.47-.27l-3.905-.976a1.005 1.005 0 0 0-.266-.024c-.16-.031-.309-.074-.5-.074a2.55 2.55 0 0 0-1.45.453C19.02 12.586 18.079 12 17 12zm0 2c.566 0 1 .434 1 1v.64l-2.379 9.407C15.047 26.203 13.88 27 12.5 27A3.484 3.484 0 0 1 9 23.5c0-.883.332-1.668.883-2.297a.746.746 0 0 0 .094-.125l5.722-6.172-.66-.36a1 1 0 0 0 1.223-.21A.975.975 0 0 1 17 14zm5.074.906l-.36.239 3.083.77-.211-.337a1 1 0 0 0 .633.45.979.979 0 0 1 .484.261l.004.004s.004 0 .004.004c.012.008.02.02.031.031.004 0 .008.004.012.008v.004h.004l.02.02 5.55 5.05a.995.995 0 0 0 1.102.164l4.883-2.328a1.09 1.09 0 0 0 .128-.074A.975.975 0 0 1 38 19c.566 0 1 .434 1 1a.99.99 0 0 1-.723.953.92.92 0 0 0-.172.067l-5.347 2.718.285.032a1.013 1.013 0 0 0-.586.109A.942.942 0 0 1 32 24a.98.98 0 0 1-.684-.277c-.02-.02-.046-.04-.07-.063l-4.629-3.61a.998.998 0 0 0-.926-.16.99.99 0 0 0-.652.68l-2.004 7.16c-.094.344 0 .711.246.965l5.239 5.407-.07-.211a1 1 0 0 0 .25.394c.187.188.3.43.3.715v9.5c0 .84-.66 1.5-1.5 1.5s-1.5-.66-1.5-1.5v-7c0-.293-.129-.57-.352-.762l-3.824-3.261a1.015 1.015 0 0 0-.441-.38l-3.254-2.773c-.004-.008-.012-.012-.016-.015C17.433 29.75 17 28.937 17 28c0-.379.078-.742.215-1.094a.984.984 0 0 0 .043-.59l.05.211 2.583-10.21-.094.046a.958.958 0 0 0 .176-.39.58.58 0 0 0 .047-.16A.995.995 0 0 1 21 15c.066 0 .145.012.254.043.281.074.578.023.82-.137zm3.723 1.465c.008.008.02.016.031.02l.031.027s-.015-.012-.015-.016c.164.114.36.176.562.176h-.347zM17.25 32.203l2.535 2.164-1.523 4.16-3.922 5.907.812.488a.998.998 0 0 0-1.371.344c-.265.441-.73.734-1.281.734a1.486 1.486 0 0 1-1.156-2.438c.043-.054.082-.113.113-.175l4.078-5.836a.945.945 0 0 0 .137-.274z"/></svg>