<svg xmlns="http://www.w3.org/2000/svg" width="46" height="48" viewBox="0 0 46 48"><g fill="none" fill-rule="evenodd"><path fill="#212A34" fill-rule="nonzero" d="M10 0C8.906 0 8 .906 8 2v2H2c-.406 0-.852.063-1.277.36C.297 4.655 0 5.245 0 5.792v40.25c0 .5.172 1.012.531 1.383.356.375.88.574 1.387.574h42.164c.508 0 1.031-.2 1.387-.574.36-.371.531-.883.531-1.383V5.793c0-.547-.297-1.137-.723-1.434C44.852 4.063 44.407 4 44 4h-6V2c0-1.094-.906-2-2-2h-2c-1.094 0-2 .906-2 2v2H14V2c0-1.094-.906-2-2-2h-2zm0 2h2v6h-2V2zm24 0h2v6h-2V2zM2 6h6v2c0 1.094.906 2 2 2h2c1.094 0 2-.906 2-2V6h18v2c0 1.094.906 2 2 2h2c1.094 0 2-.906 2-2V6h6v7H2V6zm0 9h42v31H2V15z"/><path fill="#5000C5" d="M19.504 25.188l2.763 9.839c-.04.402-.156.723-.357.969-.2.245-.536.366-.995.366a4.08 4.08 0 0 1-.661-.054v1.88h1.022c.59 0 1.072-.04 1.456-.126a1.96 1.96 0 0 0 .986-.54c.277-.272.514-.665.714-1.17.201-.504.411-1.164.63-1.986l2.38-9.178h-2.527l-1.277 6.803h-.04l-1.46-6.803h-2.634z"/></g></svg>