<svg xmlns="http://www.w3.org/2000/svg" width="46" height="48" viewBox="0 0 46 48"><g fill="none" fill-rule="evenodd"><path fill="#212A34" fill-rule="nonzero" d="M10 0C8.906 0 8 .906 8 2v2H2c-.406 0-.852.063-1.277.36C.297 4.655 0 5.245 0 5.792v40.25c0 .5.172 1.012.531 1.383.356.375.88.574 1.387.574h42.164c.508 0 1.031-.2 1.387-.574.36-.371.531-.883.531-1.383V5.793c0-.547-.297-1.137-.723-1.434C44.852 4.063 44.407 4 44 4h-6V2c0-1.094-.906-2-2-2h-2c-1.094 0-2 .906-2 2v2H14V2c0-1.094-.906-2-2-2h-2zm0 2h2v6h-2V2zm24 0h2v6h-2V2zM2 6h6v2c0 1.094.906 2 2 2h2c1.094 0 2-.906 2-2V6h18v2c0 1.094.906 2 2 2h2c1.094 0 2-.906 2-2V6h6v7H2V6zm0 9h42v31H2V15z"/><path fill="#5000C5" d="M22.004 23.614c-.631 0-1.175.113-1.632.334-.451.226-.862.595-1.226 1.114h-.041v-1.155h-2.777v11.31h2.9v-7.44c0-.673.138-1.166.41-1.474.272-.307.642-.461 1.104-.461.41 0 .698.128.872.38.175.25.262.615.262 1.092v7.904h2.904v-7.442c0-.672.134-1.165.411-1.473.272-.307.636-.461 1.098-.461.41 0 .698.128.878.38.174.25.262.615.262 1.092v7.904h2.9V27c0-1.093-.227-1.934-.683-2.514-.457-.58-1.17-.873-2.135-.873-.688 0-1.278.15-1.776.452-.498.303-.857.754-1.083 1.355h-.04c-.155-.59-.463-1.037-.914-1.345-.457-.308-1.022-.462-1.694-.462z"/></g></svg>