<svg xmlns="http://www.w3.org/2000/svg" width="20" height="28" viewBox="0 0 20 28"><path fill="#FFF" fill-rule="evenodd" d="M9.5.094L8.094 1.5l2.5 2.531c-.2-.01-.39-.031-.594-.031C4.5 4 0 8.5 0 14c0 1.5.306 2.894.906 4.094l1.5-1.5C2.206 15.794 2 14.9 2 14c0-4.4 3.6-8 8-8 .174 0 .358.018.531.031L8.094 8.5 9.5 9.906l4.219-4.187.687-.719-.687-.719L9.5.094zm9.594 9.812l-1.5 1.5c.3.8.406 1.694.406 2.594 0 4.4-3.6 8-8 8-.174 0-.358-.018-.531-.031l2.437-2.469-1.406-1.406-4.219 4.187-.687.719.687.719 4.219 4.187 1.406-1.406-2.5-2.531c.195.011.398.031.594.031 5.5 0 10-4.5 10-10 0-1.5-.306-2.894-.906-4.094z"/></svg>