<svg xmlns="http://www.w3.org/2000/svg" width="33" height="35" viewBox="0 0 33 35"><path fill="#FFF" d="M0 0v35h14.808v-5.385H17.5V35h14.808V0H0zm2.692 2.692h26.923v29.616h-9.423v-5.385h-8.077v5.385H2.692V2.692zm2.693 2.693v2.692h5.384V5.385H5.385zm8.077 0v2.692h5.384V5.385h-5.384zm8.076 0v2.692h5.385V5.385h-5.385zM5.385 10.769v2.693h5.384v-2.693H5.385zm8.077 0v2.693h5.384v-2.693h-5.384zm8.076 0v2.693h5.385v-2.693h-5.385zM5.385 16.154v2.692h5.384v-2.692H5.385zm8.077 0v2.692h5.384v-2.692h-5.384zm8.076 0v2.692h5.385v-2.692h-5.385zM5.385 21.538v2.693h5.384v-2.693H5.385zm8.077 0v2.693h5.384v-2.693h-5.384zm8.076 0v2.693h5.385v-2.693h-5.385zM5.385 26.923v2.692h5.384v-2.692H5.385zm16.153 0v2.692h5.385v-2.692h-5.385z"/></svg>