<?xml version="1.0" encoding="UTF-8" standalone="no"?>
<svg width="161px" height="48px" viewBox="0 0 161 48" version="1.1" xmlns="http://www.w3.org/2000/svg" xmlns:xlink="http://www.w3.org/1999/xlink">
    <!-- Generator: Sketch 46.2 (44496) - http://www.bohemiancoding.com/sketch -->
    <title>alloe-logo</title>
    <desc>Created with Sketch.</desc>
    <defs></defs>
    <g id="Page-1" stroke="none" stroke-width="1" fill="none" fill-rule="evenodd">
        <g id="Artboard" transform="translate(-172.000000, -144.000000)">
            <g id="alloe-logo" transform="translate(172.000000, 144.000000)">
                <polygon id="Shape" fill="#F12E65" fill-rule="nonzero" points="13.97 0 27.939 23.948 0 23.948"></polygon>
                <g id="Group" transform="translate(48.197000, 0.000000)" fill-rule="nonzero" fill="#FFCC00">
                    <rect id="Rectangle-path" x="0" y="0" width="9.313" height="23.948"></rect>
                    <rect id="Rectangle-path" x="14.635" y="0" width="9.313" height="23.948"></rect>
                </g>
                <circle id="Oval" fill="#5000C5" fill-rule="nonzero" cx="104.378" cy="11.974" r="11.974"></circle>
                <g id="Group" transform="translate(135.610000, 0.000000)" fill-rule="nonzero" fill="#41DE7F">
                    <rect id="Rectangle-path" transform="translate(12.974000, 20.622500) rotate(-90.000000) translate(-12.974000, -20.622500) " x="9.6845" y="8.6485" width="6.579" height="23.948"></rect>
                    <rect id="Rectangle-path" transform="translate(12.974000, 12.107500) rotate(-90.000000) translate(-12.974000, -12.107500) " x="9.6845" y="0.1335" width="6.579" height="23.948"></rect>
                    <rect id="Rectangle-path" transform="translate(12.973000, 3.460500) rotate(-90.000000) translate(-12.973000, -3.460500) " x="9.6835" y="-8.5135" width="6.579" height="23.948"></rect>
                </g>
                <path d="M39.9684,45 L39.9684,35.2515 L40.6049,35.2515 L40.6049,39.4725 C40.9131015,39.0928314 41.264848,38.7902178 41.66015,38.56465 C42.055452,38.3390822 42.4987642,38.2263 42.9901,38.2263 C43.3563685,38.2263 43.6790819,38.2843661 43.95825,38.4005 C44.2374181,38.5166339 44.4685658,38.6841322 44.6517,38.903 C44.8348342,39.1218678 44.9732995,39.3853985 45.0671,39.6936 C45.1609005,40.0018015 45.2078,40.3501981 45.2078,40.7388 L45.2078,45 L44.5713,45 L44.5713,40.7388 C44.5713,40.1134635 44.4283681,39.6232518 44.1425,39.26815 C43.8566319,38.9130482 43.4189029,38.7355 42.8293,38.7355 C42.3915645,38.7355 41.9851019,38.8482822 41.6099,39.07385 C41.2346981,39.2994178 40.8997015,39.6087314 40.6049,40.0018 L40.6049,45 L39.9684,45 Z M49.7303,38.2263 C50.1055019,38.2263 50.4527817,38.291066 50.77215,38.4206 C51.0915183,38.550134 51.3684488,38.7388488 51.60295,38.98675 C51.8374512,39.2346512 52.0205827,39.5394982 52.15235,39.9013 C52.2841173,40.2631018 52.35,40.6784977 52.35,41.1475 C52.35,41.2457672 52.3354835,41.3127665 52.30645,41.3485 C52.2774165,41.3842335 52.2316336,41.4021 52.1691,41.4021 L47.3518,41.4021 L47.3518,41.5294 C47.3518,42.0296692 47.4098661,42.4696314 47.526,42.8493 C47.6421339,43.2289686 47.8073989,43.5472154 48.0218,43.80405 C48.2362011,44.0608846 48.4952651,44.254066 48.799,44.3836 C49.1027349,44.513134 49.4421981,44.5779 49.8174,44.5779 C50.1524017,44.5779 50.4427321,44.5410504 50.6884,44.46735 C50.9340679,44.3936496 51.1406492,44.3110171 51.30815,44.21945 C51.4756508,44.1278829 51.6085328,44.0452504 51.7068,43.97155 C51.8050672,43.8978496 51.8765331,43.861 51.9212,43.861 C51.979267,43.861 52.0239332,43.8833331 52.0552,43.928 L52.2294,44.1424 C52.1221995,44.2764007 51.9803842,44.4014661 51.80395,44.5176 C51.6275158,44.6337339 51.4309844,44.7331163 51.21435,44.81575 C50.9977156,44.8983837 50.7654512,44.9642664 50.51755,45.0134 C50.2696488,45.0625336 50.0206346,45.0871 49.7705,45.0871 C49.3148977,45.0871 48.8995019,45.0078175 48.5243,44.84925 C48.1490981,44.6906825 47.8275013,44.4595349 47.5595,44.1558 C47.2914987,43.8520651 47.0849174,43.4802189 46.93975,43.04025 C46.7945826,42.6002811 46.722,42.0966695 46.722,41.5294 C46.722,41.0514643 46.790116,40.6103854 46.92635,40.20615 C47.062584,39.8019146 47.2591154,39.4535181 47.51595,39.16095 C47.7727846,38.8683819 48.0876815,38.6394675 48.46065,38.4742 C48.8336185,38.3089325 49.256831,38.2263 49.7303,38.2263 Z M49.737,38.702 C49.3930649,38.702 49.084868,38.7555995 48.8124,38.8628 C48.539932,38.9700005 48.3043177,39.124099 48.10555,39.3251 C47.9067823,39.526101 47.7459839,39.7672986 47.62315,40.0487 C47.5003161,40.3301014 47.4188002,40.6449983 47.3786,40.9934 L51.7738,40.9934 C51.7738,40.6360649 51.7246672,40.3155848 51.6264,40.03195 C51.5281328,39.7483152 51.3896676,39.5082343 51.211,39.3117 C51.0323324,39.1151657 50.8179346,38.9644172 50.5678,38.85945 C50.3176654,38.7544828 50.0407349,38.702 49.737,38.702 Z M58.3197,45 C58.1856993,45 58.1030668,44.9374673 58.0718,44.8124 L57.978,43.9615 C57.7948658,44.1401676 57.6128509,44.300966 57.43195,44.4439 C57.2510491,44.586834 57.0623343,44.7074328 56.8658,44.8057 C56.6692657,44.9039672 56.4571011,44.9787831 56.2293,45.03015 C56.0014989,45.0815169 55.751368,45.1072 55.4789,45.1072 C55.2510989,45.1072 55.0300011,45.0737003 54.8156,45.0067 C54.6011989,44.9396997 54.4113675,44.8369674 54.2461,44.6985 C54.0808325,44.5600326 53.9479505,44.3824844 53.84745,44.16585 C53.7469495,43.9492156 53.6967,43.6890349 53.6967,43.3853 C53.6967,43.1038986 53.7770992,42.8426012 53.9379,42.6014 C54.0987008,42.3601988 54.3499483,42.1502676 54.69165,41.9716 C55.0333517,41.7929324 55.473314,41.6500005 56.01155,41.5428 C56.549786,41.4355995 57.1963296,41.3730668 57.9512,41.3552 L57.9512,40.6584 C57.9512,40.0419969 57.818318,39.5674183 57.55255,39.23465 C57.286782,38.9018817 56.8926026,38.7355 56.37,38.7355 C56.0483984,38.7355 55.7748178,38.7801662 55.54925,38.8695 C55.3236822,38.9588338 55.1327341,39.0570995 54.9764,39.1643 C54.8200659,39.2715005 54.6927672,39.3697662 54.5945,39.4591 C54.4962328,39.5484338 54.4136003,39.5931 54.3466,39.5931 C54.2572662,39.5931 54.1902669,39.5529004 54.1456,39.4725 L54.0317,39.2782 C54.3801017,38.9297983 54.7463647,38.6662676 55.1305,38.4876 C55.5146353,38.3089324 55.9501309,38.2196 56.437,38.2196 C56.7943351,38.2196 57.1069987,38.2765494 57.375,38.39045 C57.6430013,38.5043506 57.8652158,38.6673823 58.04165,38.87955 C58.2180842,39.0917177 58.3509662,39.3485485 58.4403,39.65005 C58.5296338,39.9515515 58.5743,40.2876648 58.5743,40.6584 L58.5743,45 L58.3197,45 Z M55.6397,44.6449 C55.898768,44.6449 56.1366156,44.6169836 56.35325,44.56115 C56.5698844,44.5053164 56.7708824,44.4271505 56.95625,44.32665 C57.1416176,44.2261495 57.3146992,44.1066674 57.4755,43.9682 C57.6363008,43.8297326 57.7948659,43.6801008 57.9512,43.5193 L57.9512,41.784 C57.3169302,41.8018668 56.7708856,41.8498829 56.31305,41.92805 C55.8552144,42.0062171 55.4777848,42.1122993 55.18075,42.2463 C54.8837152,42.3803007 54.6648507,42.5399824 54.52415,42.72535 C54.3834493,42.9107176 54.3131,43.1217655 54.3131,43.3585 C54.3131,43.5818345 54.3499496,43.7750159 54.42365,43.93805 C54.4973504,44.1010841 54.5944994,44.2350828 54.7151,44.34005 C54.8357006,44.4450172 54.9763992,44.5220664 55.1372,44.5712 C55.2980008,44.6203336 55.4654991,44.6449 55.6397,44.6449 Z M61.4084,35.2515 L61.4084,45 L60.7719,45 L60.7719,35.2515 L61.4084,35.2515 Z M65.5892,45.1072 C65.1380644,45.1072 64.7863179,44.9821346 64.53395,44.732 C64.2815821,44.4818654 64.1554,44.0955026 64.1554,43.5729 L64.1554,39.0169 L63.1973,39.0169 C63.1481664,39.0169 63.1079668,39.0035001 63.0767,38.9767 C63.0454332,38.9498999 63.0298,38.9119336 63.0298,38.8628 L63.0298,38.6149 L64.1688,38.5345 L64.3296,36.1493 C64.3340667,36.1090998 64.3508165,36.0733668 64.37985,36.0421 C64.4088835,36.0108332 64.4479664,35.9952 64.4971,35.9952 L64.7986,35.9952 L64.7986,38.5412 L66.8957,38.5412 L66.8957,39.0169 L64.7986,39.0169 L64.7986,43.5394 C64.7986,43.7225342 64.8220498,43.8799827 64.86895,44.01175 C64.9158502,44.1435173 64.9806163,44.2518329 65.06325,44.3367 C65.1458837,44.4215671 65.2430328,44.4840998 65.3547,44.5243 C65.4663672,44.5645002 65.586966,44.5846 65.7165,44.5846 C65.8773008,44.5846 66.0157661,44.5611502 66.1319,44.51425 C66.2480339,44.4673498 66.3485329,44.4159836 66.4334,44.36015 C66.5182671,44.3043164 66.5874997,44.2529502 66.6411,44.20605 C66.6947003,44.1591498 66.7371332,44.1357 66.7684,44.1357 C66.8041335,44.1357 66.8398665,44.1580331 66.8756,44.2027 L67.0498,44.4841 C66.8800658,44.6717009 66.6645513,44.8224494 66.40325,44.93635 C66.1419487,45.0502506 65.8706014,45.1072 65.5892,45.1072 Z M68.5439,45 L68.5439,35.2515 L69.1804,35.2515 L69.1804,39.4725 C69.4886015,39.0928314 69.840348,38.7902178 70.23565,38.56465 C70.630952,38.3390822 71.0742642,38.2263 71.5656,38.2263 C71.9318685,38.2263 72.2545819,38.2843661 72.53375,38.4005 C72.8129181,38.5166339 73.0440658,38.6841322 73.2272,38.903 C73.4103342,39.1218678 73.5487995,39.3853985 73.6426,39.6936 C73.7364005,40.0018015 73.7833,40.3501981 73.7833,40.7388 L73.7833,45 L73.1468,45 L73.1468,40.7388 C73.1468,40.1134635 73.0038681,39.6232518 72.718,39.26815 C72.4321319,38.9130482 71.9944029,38.7355 71.4048,38.7355 C70.9670645,38.7355 70.5606019,38.8482822 70.1854,39.07385 C69.8101981,39.2994178 69.4752015,39.6087314 69.1804,40.0018 L69.1804,45 L68.5439,45 Z M77.0797,47.144 C77.0528999,47.2065336 77.0182835,47.2578998 76.97585,47.2981 C76.9334165,47.3383002 76.8720004,47.3584 76.7916,47.3584 L76.336,47.3584 L77.5085,44.7521 L74.6878,38.3335 L75.2171,38.3335 C75.2841003,38.3335 75.3365831,38.3502498 75.37455,38.38375 C75.4125169,38.4172502 75.4404332,38.4540998 75.4583,38.4943 L77.7028,43.6801 C77.7296001,43.7471003 77.7530499,43.8152163 77.77315,43.88445 C77.7932501,43.9536837 77.8122332,44.024033 77.8301,44.0955 C77.8524334,44.024033 77.8758832,43.9536837 77.90045,43.88445 C77.9250168,43.8152163 77.9506999,43.7471003 77.9775,43.6801 L80.1952,38.4943 C80.2175334,38.4451664 80.2487998,38.4060835 80.289,38.37705 C80.3292002,38.3480165 80.3738664,38.3335 80.423,38.3335 L80.9121,38.3335 L77.0797,47.144 Z M84.7378,47.3584 L84.7378,38.3335 L85.0862,38.3335 C85.144267,38.3335 85.1911665,38.3457832 85.2269,38.37035 C85.2626335,38.3949168 85.2827333,38.4384664 85.2872,38.501 L85.3475,39.5328 C85.6423015,39.130798 85.987348,38.8114345 86.38265,38.5747 C86.777952,38.3379655 87.2212642,38.2196 87.7126,38.2196 C88.5344708,38.2196 89.1731977,38.5032305 89.6288,39.0705 C90.0844023,39.6377695 90.3122,40.488661 90.3122,41.6232 C90.3122,42.1100691 90.2485506,42.5645479 90.12125,42.98665 C89.9939494,43.4087521 89.8074679,43.7750151 89.5618,44.08545 C89.3161321,44.3958849 89.0135185,44.6404324 88.65395,44.8191 C88.2943815,44.9977676 87.8801023,45.0871 87.4111,45.0871 C86.9554977,45.0871 86.562435,45.0044675 86.2319,44.8392 C85.901365,44.6739325 85.6155012,44.4282683 85.3743,44.1022 L85.3743,47.3584 L84.7378,47.3584 Z M87.5317,38.7355 C87.0894978,38.7355 86.6886185,38.8505155 86.32905,39.08055 C85.9694815,39.3105845 85.6512347,39.6310646 85.3743,40.042 L85.3743,43.5394 C85.6289013,43.9235353 85.9114151,44.1937659 86.22185,44.3501 C86.5322849,44.5064341 86.8862647,44.5846 87.2838,44.5846 C87.6768686,44.5846 88.0207985,44.513134 88.3156,44.3702 C88.6104015,44.227266 88.8571823,44.0251513 89.05595,43.76385 C89.2547177,43.5025487 89.4043495,43.1898852 89.50485,42.82585 C89.6053505,42.4618148 89.6556,42.0609355 89.6556,41.6232 C89.6556,40.631595 89.4735852,39.902419 89.10955,39.43565 C88.7455148,38.968881 88.2195701,38.7355 87.5317,38.7355 Z M94.4193,38.2263 C94.7945019,38.2263 95.1417817,38.291066 95.46115,38.4206 C95.7805183,38.550134 96.0574488,38.7388488 96.29195,38.98675 C96.5264512,39.2346512 96.7095827,39.5394982 96.84135,39.9013 C96.9731173,40.2631018 97.039,40.6784977 97.039,41.1475 C97.039,41.2457672 97.0244835,41.3127665 96.99545,41.3485 C96.9664165,41.3842335 96.9206336,41.4021 96.8581,41.4021 L92.0408,41.4021 L92.0408,41.5294 C92.0408,42.0296692 92.0988661,42.4696314 92.215,42.8493 C92.3311339,43.2289686 92.4963989,43.5472154 92.7108,43.80405 C92.9252011,44.0608846 93.1842651,44.254066 93.488,44.3836 C93.7917349,44.513134 94.1311981,44.5779 94.5064,44.5779 C94.8414017,44.5779 95.1317321,44.5410504 95.3774,44.46735 C95.6230679,44.3936496 95.8296492,44.3110171 95.99715,44.21945 C96.1646508,44.1278829 96.2975328,44.0452504 96.3958,43.97155 C96.4940672,43.8978496 96.5655331,43.861 96.6102,43.861 C96.668267,43.861 96.7129332,43.8833331 96.7442,43.928 L96.9184,44.1424 C96.8111995,44.2764007 96.6693842,44.4014661 96.49295,44.5176 C96.3165158,44.6337339 96.1199844,44.7331163 95.90335,44.81575 C95.6867156,44.8983837 95.4544512,44.9642664 95.20655,45.0134 C94.9586488,45.0625336 94.7096346,45.0871 94.4595,45.0871 C94.0038977,45.0871 93.5885019,45.0078175 93.2133,44.84925 C92.8380981,44.6906825 92.5165013,44.4595349 92.2485,44.1558 C91.9804987,43.8520651 91.7739174,43.4802189 91.62875,43.04025 C91.4835826,42.6002811 91.411,42.0966695 91.411,41.5294 C91.411,41.0514643 91.479116,40.6103854 91.61535,40.20615 C91.751584,39.8019146 91.9481154,39.4535181 92.20495,39.16095 C92.4617846,38.8683819 92.7766815,38.6394675 93.14965,38.4742 C93.5226185,38.3089325 93.945831,38.2263 94.4193,38.2263 Z M94.426,38.702 C94.0820649,38.702 93.773868,38.7555995 93.5014,38.8628 C93.228932,38.9700005 92.9933177,39.124099 92.79455,39.3251 C92.5957823,39.526101 92.4349839,39.7672986 92.31215,40.0487 C92.1893161,40.3301014 92.1078002,40.6449983 92.0676,40.9934 L96.4628,40.9934 C96.4628,40.6360649 96.4136672,40.3155848 96.3154,40.03195 C96.2171328,39.7483152 96.0786676,39.5082343 95.9,39.3117 C95.7213324,39.1151657 95.5069346,38.9644172 95.2568,38.85945 C95.0066654,38.7544828 94.7297349,38.702 94.426,38.702 Z M101.2935,38.2263 C101.771436,38.2263 102.199115,38.3078159 102.57655,38.47085 C102.953985,38.6338841 103.272232,38.8650318 103.5313,39.1643 C103.790368,39.4635682 103.988016,39.8242479 104.12425,40.24635 C104.260484,40.6684521 104.3286,41.1407974 104.3286,41.6634 C104.3286,42.1860026 104.260484,42.6572312 104.12425,43.0771 C103.988016,43.4969688 103.790368,43.8565318 103.5313,44.1558 C103.272232,44.4550682 102.953985,44.6850992 102.57655,44.8459 C102.199115,45.0067008 101.771436,45.0871 101.2935,45.0871 C100.815564,45.0871 100.387885,45.0067008 100.01045,44.8459 C99.6330148,44.6850992 99.3136513,44.4550682 99.05235,44.1558 C98.7910487,43.8565318 98.592284,43.4969688 98.45605,43.0771 C98.319816,42.6572312 98.2517,42.1860026 98.2517,41.6634 C98.2517,41.1407974 98.319816,40.6684521 98.45605,40.24635 C98.592284,39.8242479 98.7910487,39.4635682 99.05235,39.1643 C99.3136513,38.8650318 99.6330148,38.6338841 100.01045,38.47085 C100.387885,38.3078159 100.815564,38.2263 101.2935,38.2263 Z M101.2935,44.5846 C101.691035,44.5846 102.038315,44.516484 102.33535,44.38025 C102.632385,44.244016 102.880282,44.0486013 103.07905,43.794 C103.277818,43.5393987 103.426333,43.2323185 103.5246,42.87275 C103.622867,42.5131815 103.672,42.1100689 103.672,41.6634 C103.672,41.2211978 103.622867,40.8192018 103.5246,40.4574 C103.426333,40.0955982 103.277818,39.7862846 103.07905,39.52945 C102.880282,39.2726154 102.632385,39.0749674 102.33535,38.9365 C102.038315,38.7980326 101.691035,38.7288 101.2935,38.7288 C100.895965,38.7288 100.548685,38.7980326 100.25165,38.9365 C99.9546152,39.0749674 99.7067177,39.2726154 99.50795,39.52945 C99.3091823,39.7862846 99.1595505,40.0955982 99.05905,40.4574 C98.9585495,40.8192018 98.9083,41.2211978 98.9083,41.6634 C98.9083,42.1100689 98.9585495,42.5131815 99.05905,42.87275 C99.1595505,43.2323185 99.3091823,43.5393987 99.50795,43.794 C99.7067177,44.0486013 99.9546152,44.244016 100.25165,44.38025 C100.548685,44.516484 100.895965,44.5846 101.2935,44.5846 Z M106.0036,47.3584 L106.0036,38.3335 L106.352,38.3335 C106.410067,38.3335 106.456966,38.3457832 106.4927,38.37035 C106.528434,38.3949168 106.548533,38.4384664 106.553,38.501 L106.6133,39.5328 C106.908101,39.130798 107.253148,38.8114345 107.64845,38.5747 C108.043752,38.3379655 108.487064,38.2196 108.9784,38.2196 C109.800271,38.2196 110.438998,38.5032305 110.8946,39.0705 C111.350202,39.6377695 111.578,40.488661 111.578,41.6232 C111.578,42.1100691 111.514351,42.5645479 111.38705,42.98665 C111.259749,43.4087521 111.073268,43.7750151 110.8276,44.08545 C110.581932,44.3958849 110.279318,44.6404324 109.91975,44.8191 C109.560182,44.9977676 109.145902,45.0871 108.6769,45.0871 C108.221298,45.0871 107.828235,45.0044675 107.4977,44.8392 C107.167165,44.6739325 106.881301,44.4282683 106.6401,44.1022 L106.6401,47.3584 L106.0036,47.3584 Z M108.7975,38.7355 C108.355298,38.7355 107.954418,38.8505155 107.59485,39.08055 C107.235282,39.3105845 106.917035,39.6310646 106.6401,40.042 L106.6401,43.5394 C106.894701,43.9235353 107.177215,44.1937659 107.48765,44.3501 C107.798085,44.5064341 108.152065,44.5846 108.5496,44.5846 C108.942669,44.5846 109.286599,44.513134 109.5814,44.3702 C109.876201,44.227266 110.122982,44.0251513 110.32175,43.76385 C110.520518,43.5025487 110.670149,43.1898852 110.77065,42.82585 C110.871151,42.4618148 110.9214,42.0609355 110.9214,41.6232 C110.9214,40.631595 110.739385,39.902419 110.37535,39.43565 C110.011315,38.968881 109.48537,38.7355 108.7975,38.7355 Z M113.9967,35.2515 L113.9967,45 L113.3602,45 L113.3602,35.2515 L113.9967,35.2515 Z M118.8676,38.2263 C119.242802,38.2263 119.590082,38.291066 119.90945,38.4206 C120.228818,38.550134 120.505749,38.7388488 120.74025,38.98675 C120.974751,39.2346512 121.157883,39.5394982 121.28965,39.9013 C121.421417,40.2631018 121.4873,40.6784977 121.4873,41.1475 C121.4873,41.2457672 121.472783,41.3127665 121.44375,41.3485 C121.414717,41.3842335 121.368934,41.4021 121.3064,41.4021 L116.4891,41.4021 L116.4891,41.5294 C116.4891,42.0296692 116.547166,42.4696314 116.6633,42.8493 C116.779434,43.2289686 116.944699,43.5472154 117.1591,43.80405 C117.373501,44.0608846 117.632565,44.254066 117.9363,44.3836 C118.240035,44.513134 118.579498,44.5779 118.9547,44.5779 C119.289702,44.5779 119.580032,44.5410504 119.8257,44.46735 C120.071368,44.3936496 120.277949,44.3110171 120.44545,44.21945 C120.612951,44.1278829 120.745833,44.0452504 120.8441,43.97155 C120.942367,43.8978496 121.013833,43.861 121.0585,43.861 C121.116567,43.861 121.161233,43.8833331 121.1925,43.928 L121.3667,44.1424 C121.259499,44.2764007 121.117684,44.4014661 120.94125,44.5176 C120.764816,44.6337339 120.568284,44.7331163 120.35165,44.81575 C120.135016,44.8983837 119.902751,44.9642664 119.65485,45.0134 C119.406949,45.0625336 119.157935,45.0871 118.9078,45.0871 C118.452198,45.0871 118.036802,45.0078175 117.6616,44.84925 C117.286398,44.6906825 116.964801,44.4595349 116.6968,44.1558 C116.428799,43.8520651 116.222217,43.4802189 116.07705,43.04025 C115.931883,42.6002811 115.8593,42.0966695 115.8593,41.5294 C115.8593,41.0514643 115.927416,40.6103854 116.06365,40.20615 C116.199884,39.8019146 116.396415,39.4535181 116.65325,39.16095 C116.910085,38.8683819 117.224981,38.6394675 117.59795,38.4742 C117.970919,38.3089325 118.394131,38.2263 118.8676,38.2263 Z M118.8743,38.702 C118.530365,38.702 118.222168,38.7555995 117.9497,38.8628 C117.677232,38.9700005 117.441618,39.124099 117.24285,39.3251 C117.044082,39.526101 116.883284,39.7672986 116.76045,40.0487 C116.637616,40.3301014 116.5561,40.6449983 116.5159,40.9934 L120.9111,40.9934 C120.9111,40.6360649 120.861967,40.3155848 120.7637,40.03195 C120.665433,39.7483152 120.526968,39.5082343 120.3483,39.3117 C120.169632,39.1151657 119.955235,38.9644172 119.7051,38.85945 C119.454965,38.7544828 119.178035,38.702 118.8743,38.702 Z" id="healthy-people" fill="#55615F"></path>
            </g>
        </g>
    </g>
</svg>