<?xml version="1.0" encoding="UTF-8" standalone="no"?>
<svg width="147px" height="100px" viewBox="0 0 147 100" version="1.1" xmlns="http://www.w3.org/2000/svg" xmlns:xlink="http://www.w3.org/1999/xlink">
    <!-- Generator: Sketch 46.2 (44496) - http://www.bohemiancoding.com/sketch -->
    <title>icons8-technology_items</title>
    <desc>Created with Sketch.</desc>
    <defs></defs>
    <g id="Page-1" stroke="none" stroke-width="1" fill="none" fill-rule="evenodd">
        <g id="Artboard" transform="translate(-99.000000, -221.000000)" fill-rule="nonzero" fill="#000000">
            <g id="icons8-technology_items" transform="translate(99.000000, 221.000000)">
                <path d="M20.514924,0 C14.0353499,0 8.79215842,5.26195 8.79215842,11.7647059 L8.79215842,76.4705882 C8.79215842,78.6190265 9.44469444,80.6181059 10.4406723,82.3529412 L2.93077566,82.3529412 C2.83919155,82.3529412 2.74760744,82.3529412 2.65602334,82.3529412 C1.14488559,82.4908088 -0.0113637407,83.7660853 8.42725546e-05,85.2941176 C8.42725546e-05,93.3708647 6.60558717,100 14.6535412,100 L131.881197,100 C139.929151,100 146.534653,93.3708647 146.534653,85.2941176 C146.534653,83.6741735 145.218131,82.3529412 143.603962,82.3529412 L136.094065,82.3529412 C137.090043,80.6181059 137.742579,78.6190265 137.742579,76.4705882 L137.742579,11.7647059 C137.742579,5.26195 132.499391,0 126.019814,0 L20.514924,0 Z M20.514924,5.88235294 L126.019814,5.88235294 C129.511457,5.88235294 131.881197,8.26057059 131.881197,11.7647059 L131.881197,76.4705882 C131.881197,79.9747235 129.511457,82.3529412 126.019814,82.3529412 L20.514924,82.3529412 C17.0232807,82.3529412 14.6535412,79.9747235 14.6535412,76.4705882 L14.6535412,11.7647059 C14.6535412,8.26057059 17.0232807,5.88235294 20.514924,5.88235294 Z M22.8961107,11.7647059 C21.4994546,12.0289529 20.4920294,13.2697618 20.514924,14.7058824 L20.514924,73.5294118 C20.514924,75.1493559 21.8314462,76.4705882 23.4456153,76.4705882 L123.089122,76.4705882 C124.703292,76.4705882 126.019814,75.1493559 126.019814,73.5294118 L126.019814,14.7058824 C126.019814,13.0859382 124.703292,11.7647059 123.089122,11.7647059 L23.4456153,11.7647059 C23.3540312,11.7647059 23.2624471,11.7647059 23.170863,11.7647059 C23.0792789,11.7647059 22.9876948,11.7647059 22.8961107,11.7647059 Z M26.3763067,17.6470588 L120.158431,17.6470588 L120.158431,70.5882353 L26.3763067,70.5882353 L26.3763067,17.6470588 Z M7.05206041,88.2352941 L139.482677,88.2352941 C138.189053,91.4981618 135.590353,94.1176471 131.881197,94.1176471 L14.6535412,94.1176471 C10.9443849,94.1176471 8.34568518,91.4981618 7.05206041,88.2352941 Z" id="Shape"></path>
            </g>
        </g>
    </g>
</svg>