<svg xmlns="http://www.w3.org/2000/svg" width="50" height="50" viewBox="0 0 50 50">
  <path fill="#212A34" d="M48.90625,1 C48.773438,1.015625 48.648438,1.0585938 48.53125,1.125 L0.53125,27.125 C0.183594,27.3125 -0.0195313,27.6875 0.0117188,28.082031 C0.046875,28.476563 0.3125,28.8125 0.6875,28.9375 L14.3125,33.40625 L13,46.90625 C12.945313,47.34375 13.1875,47.765625 13.59375,47.941406 C14,48.117188 14.472656,48 14.75,47.65625 L23.34375,37.9375 L36.3125,50.71875 C36.566406,50.96875 36.933594,51.0625 37.277344,50.964844 C37.621094,50.867188 37.882813,50.597656 37.96875,50.25 L49.96875,2.25 C50.058594,1.933594 49.980469,1.59375 49.769531,1.34375 C49.554688,1.09375 49.234375,0.9648437 48.90625,1 Z M47.46875,3.9375 L36.4375,48.0625 L24.59375,36.375 L41.8125,12.59375 C42.191406,12.195313 42.179688,11.566406 41.78125,11.1875 C41.382813,10.808594 40.753906,10.820313 40.375,11.21875 L15.21875,31.59375 L3.5,27.78125 L47.46875,3.9375 Z M35.78125,17.5 L22.65625,35.71875 C22.621094,35.757813 22.589844,35.800781 22.5625,35.84375 L22.5,35.90625 C22.476563,35.9375 22.457031,35.96875 22.4375,36 L15.28125,44.03125 L16.34375,33.21875 L35.78125,17.5 Z" transform="translate(0 -1)"/>
</svg>
