<svg xmlns="http://www.w3.org/2000/svg" width="50" height="44" viewBox="0 0 50 44">
  <path fill="#212A34" d="M13.1875,0 C10.960938,0 8.089844,1.640625 5.5625,4.84375 C3.035156,8.046875 1,12.894531 1,19.5 C1,22.570313 1.984375,26.09375 3.8125,28.9375 C4.277344,29.660156 4.824219,30.320313 5.40625,30.9375 C3.140625,33.832031 1.28125,36.03125 1.28125,36.03125 C0.960938,36.269531 0.8125,36.679688 0.90625,37.066406 C1,37.457031 1.316406,37.753906 1.710938,37.820313 C2.105469,37.886719 2.503906,37.710938 2.71875,37.375 C2.71875,37.375 4.601563,35.152344 6.90625,32.21875 C8.347656,33.289063 10.003906,34 11.90625,34 C15.011719,34 17.953125,32.472656 20.5,30.3125 C20.964844,29.917969 21.339844,29.402344 21.78125,28.96875 C22.5625,29.570313 23.464844,30 24.5,30 C26.082031,30 27.476563,29.210938 28.6875,28.1875 C29.898438,27.164063 30.980469,25.871094 31.9375,24.59375 C32.894531,23.316406 33.738281,22.078125 34.4375,21.1875 C34.738281,20.800781 35.003906,20.550781 35.21875,20.34375 C35.285156,20.964844 35.25,21.949219 35.1875,22.9375 C35.125,23.925781 35.027344,24.925781 35.03125,25.75 C35.03125,26.164063 35.058594,26.527344 35.15625,26.90625 C35.207031,27.097656 35.25,27.300781 35.4375,27.53125 C35.625,27.761719 36.035156,28 36.40625,28 C37.621094,28 38.554688,27.292969 39.375,26.46875 C40.195313,25.644531 40.980469,24.628906 41.8125,23.65625 C43.476563,21.710938 45.273438,20 48,20 C48.359375,20.003906 48.695313,19.816406 48.878906,19.503906 C49.058594,19.191406 49.058594,18.808594 48.878906,18.496094 C48.695313,18.183594 48.359375,17.996094 48,18 C44.425781,18 42.042969,20.289063 40.28125,22.34375 C39.402344,23.371094 38.640625,24.355469 37.96875,25.03125 C37.570313,25.433594 37.324219,25.449219 37.03125,25.59375 C37.039063,24.925781 37.128906,24.015625 37.1875,23.0625 C37.25,22.050781 37.277344,21.035156 37.1875,20.15625 C37.140625,19.714844 37.089844,19.289063 36.875,18.875 C36.660156,18.460938 36.105469,18 35.5,18 C34.832031,18 34.394531,18.339844 34,18.6875 C33.605469,19.035156 33.230469,19.445313 32.84375,19.9375 C32.074219,20.921875 31.230469,22.183594 30.3125,23.40625 C29.394531,24.628906 28.414063,25.835938 27.40625,26.6875 C26.398438,27.539063 25.417969,28 24.5,28 C23.996094,28 23.539063,27.871094 23.125,27.59375 C24.542969,25.980469 25.847656,24.28125 26.875,22.5 C28.511719,19.664063 29.582031,16.855469 29.84375,14.5625 C29.972656,13.417969 29.933594,12.351563 29.46875,11.46875 C29.003906,10.585938 28,10 26.90625,10 C24.707031,10 22.6875,11.4375 21.25,13.5625 C19.8125,15.6875 18.90625,18.570313 18.90625,21.8125 C18.90625,23.917969 19.355469,25.859375 20.28125,27.375 C20.320313,27.441406 20.394531,27.46875 20.4375,27.53125 C20.019531,27.949219 19.625,28.441406 19.1875,28.8125 C16.867188,30.777344 14.351563,32 11.90625,32 C10.503906,32 9.253906,31.449219 8.125,30.625 C9.050781,29.394531 9.859375,28.46875 10.84375,27 C14.890625,20.964844 19,13.238281 19,6.1875 C19,5.390625 18.917969,3.9375 18.125,2.5625 C17.332031,1.1875 15.675781,0 13.1875,0 Z M13.1875,2 C15.101563,2 15.871094,2.6875 16.375,3.5625 C16.878906,4.4375 17,5.582031 17,6.1875 C17,12.4375 13.109375,19.984375 9.15625,25.875 C8.265625,27.203125 7.5625,28.023438 6.71875,29.15625 C6.316406,28.703125 5.847656,28.382813 5.5,27.84375 C3.90625,25.363281 3,22.128906 3,19.5 C3,13.304688 4.910156,8.910156 7.15625,6.0625 C9.402344,3.214844 12.113281,2 13.1875,2 Z M26.90625,12 C27.4375,12 27.519531,12.085938 27.6875,12.40625 C27.855469,12.726563 27.980469,13.394531 27.875,14.3125 C27.667969,16.144531 26.664063,18.835938 25.125,21.5 C24.214844,23.074219 23.101563,24.597656 21.875,26.03125 C21.289063,24.9375 20.90625,23.46875 20.90625,21.8125 C20.90625,18.953125 21.71875,16.4375 22.90625,14.6875 C24.09375,12.9375 25.605469,12 26.90625,12 Z M0,42 L0,44 L50,44 L50,42 L0,42 Z"/>
</svg>
