<svg xmlns="http://www.w3.org/2000/svg" width="46" height="48" viewBox="0 0 46 48">
  <g fill="none" fill-rule="evenodd">
    <path fill="#212A34" fill-rule="nonzero" d="M10,0 C8.90625,0 8,0.90625 8,2 L8,4 L2,4 C1.59375,4 1.148438,4.0625 0.722656,4.359375 C0.296875,4.65625 0,5.246094 0,5.792969 L0,46.042969 C0,46.542969 0.171875,47.054688 0.53125,47.425781 C0.886719,47.800781 1.410156,48 1.917969,48 L44.082031,48 C44.589844,48 45.113281,47.800781 45.46875,47.425781 C45.828125,47.054688 46,46.542969 46,46.042969 L46,5.792969 C46,5.246094 45.703125,4.65625 45.277344,4.359375 C44.851563,4.0625 44.40625,4 44,4 L38,4 L38,2 C38,0.90625 37.09375,0 36,0 L34,0 C32.90625,0 32,0.90625 32,2 L32,4 L14,4 L14,2 C14,0.90625 13.09375,0 12,0 L10,0 Z M10,2 L12,2 L12,8 L10,8 L10,2 Z M34,2 L36,2 L36,8 L34,8 L34,2 Z M2,6 L8,6 L8,8 C8,9.09375 8.90625,10 10,10 L12,10 C13.09375,10 14,9.09375 14,8 L14,6 L32,6 L32,8 C32,9.09375 32.90625,10 34,10 L36,10 C37.09375,10 38,9.09375 38,8 L38,6 L44,6 L44,13 L2,13 L2,6 Z M2,15 L44,15 L44,46 L2,46 L2,15 Z"/>
    <path fill="#5000C5" d="M22.0040787,23.6143294 C21.3728467,23.6143294 20.8288578,23.727232 20.3721133,23.9479068 C19.9205004,24.1737133 19.5099432,24.5432147 19.1455734,25.0615429 L19.1045176,25.0615429 L19.1045176,23.9068511 L16.328125,23.9068511 L16.328125,35.2177016 L19.2276848,35.2177016 L19.2276848,27.7763532 C19.2276848,27.1040655 19.3662482,26.6113969 19.638242,26.303479 C19.9102371,25.9955611 20.2797386,25.8416015 20.7416147,25.8416015 C21.1521719,25.8416015 21.439562,25.9699016 21.6140494,26.2213676 C21.7885356,26.4728335 21.8757786,26.8372033 21.8757786,27.3144757 L21.8757786,35.2177016 L24.7804714,35.2177016 L24.7804714,27.7763532 C24.7804714,27.1040655 24.9139018,26.6113969 25.1910286,26.303479 C25.4630224,25.9955611 25.8273922,25.8416015 26.2892684,25.8416015 C26.6998256,25.8416015 26.9872156,25.9699016 27.1668347,26.2213676 C27.3413221,26.4728335 27.4285652,26.8372033 27.4285652,27.3144757 L27.4285652,35.2177016 L30.328125,35.2177016 L30.328125,27.0014262 C30.328125,25.908318 30.1023185,25.0666758 29.645574,24.4867628 C29.1888295,23.9068511 28.475486,23.6143294 27.5106766,23.6143294 C26.8229927,23.6143294 26.2328177,23.7631561 25.7350162,24.0659424 C25.2372159,24.3687286 24.877979,24.8203415 24.6521726,25.4207811 L24.6111169,25.4207811 C24.4571573,24.8306048 24.1492394,24.3841235 23.6976265,24.0762056 C23.2408819,23.7682877 22.6763651,23.6143294 22.0040787,23.6143294 Z"/>
  </g>
</svg>
