<svg xmlns="http://www.w3.org/2000/svg" width="46" height="48" viewBox="0 0 46 48">
  <g fill="none" fill-rule="evenodd">
    <path fill="#212A34" fill-rule="nonzero" d="M10,0 C8.90625,0 8,0.90625 8,2 L8,4 L2,4 C1.59375,4 1.148438,4.0625 0.722656,4.359375 C0.296875,4.65625 0,5.246094 0,5.792969 L0,46.042969 C0,46.542969 0.171875,47.054688 0.53125,47.425781 C0.886719,47.800781 1.410156,48 1.917969,48 L44.082031,48 C44.589844,48 45.113281,47.800781 45.46875,47.425781 C45.828125,47.054688 46,46.542969 46,46.042969 L46,5.792969 C46,5.246094 45.703125,4.65625 45.277344,4.359375 C44.851563,4.0625 44.40625,4 44,4 L38,4 L38,2 C38,0.90625 37.09375,0 36,0 L34,0 C32.90625,0 32,0.90625 32,2 L32,4 L14,4 L14,2 C14,0.90625 13.09375,0 12,0 L10,0 Z M10,2 L12,2 L12,8 L10,8 L10,2 Z M34,2 L36,2 L36,8 L34,8 L34,2 Z M2,6 L8,6 L8,8 C8,9.09375 8.90625,10 10,10 L12,10 C13.09375,10 14,9.09375 14,8 L14,6 L32,6 L32,8 C32,9.09375 32.90625,10 34,10 L36,10 C37.09375,10 38,9.09375 38,8 L38,6 L44,6 L44,13 L2,13 L2,6 Z M2,15 L44,15 L44,46 L2,46 L2,15 Z"/>
    <path fill="#5000C5" d="M19.5039062,25.1875 L22.2672994,35.0267857 C22.2271211,35.428572 22.1110491,35.7500006 21.9101565,35.9955354 C21.7092639,36.2410714 21.3744422,36.3616074 20.9146205,36.3616074 C20.6914068,36.3616074 20.4726559,36.3437503 20.2539062,36.308036 L20.2539062,38.1875 L21.2762274,38.1875 C21.8655131,38.1875 22.3476559,38.1473217 22.7315851,38.0625 C23.1155131,37.9776783 23.4458708,37.7946429 23.7181919,37.5223217 C23.9949782,37.2500006 24.2315851,36.8571434 24.4324776,36.3526783 C24.6333702,35.8482143 24.8431919,35.1875 25.0619416,34.3660714 L27.4414068,25.1875 L24.9146205,25.1875 L23.6378354,31.9910714 L23.5976559,31.9910714 L22.1378354,25.1875 L19.5039062,25.1875 Z"/>
  </g>
</svg>
