<svg xmlns="http://www.w3.org/2000/svg" width="20" height="28" viewBox="0 0 20 28">
  <path fill="#FFF" fill-rule="evenodd" d="M9.5,0.09375 L8.09375,1.5 L10.59375,4.03125 C10.394162,4.0202047 10.203519,4 10,4 C4.5,4 0,8.5 0,14 C0,15.5 0.30625,16.89375 0.90625,18.09375 L2.40625,16.59375 C2.20625,15.79375 2,14.9 2,14 C2,9.6 5.6,6 10,6 C10.173969,6 10.358003,6.0177487 10.53125,6.03125 L8.09375,8.5 L9.5,9.90625 L13.71875,5.71875 L14.40625,5 L13.71875,4.28125 L9.5,0.09375 L9.5,0.09375 Z M19.09375,9.90625 L17.59375,11.40625 C17.89375,12.20625 18,13.1 18,14 C18,18.4 14.4,22 10,22 C9.826031,22 9.641997,21.982251 9.46875,21.96875 L11.90625,19.5 L10.5,18.09375 L6.28125,22.28125 L5.59375,23 L6.28125,23.71875 L10.5,27.90625 L11.90625,26.5 L9.40625,23.96875 C9.601495,23.980452 9.804483,24 10,24 C15.5,24 20,19.5 20,14 C20,12.5 19.69375,11.10625 19.09375,9.90625 L19.09375,9.90625 Z"/>
</svg>
