<svg xmlns="http://www.w3.org/2000/svg" width="33" height="35" viewBox="0 0 33 35">
  <path fill="#FFF" d="M0,0 L0,1.34615385 L0,33.6538462 L0,35 L1.34615385,35 L13.4615385,35 L14.8076923,35 L14.8076923,33.6538462 L14.8076923,29.6153846 L17.5,29.6153846 L17.5,33.6538462 L17.5,35 L18.8461538,35 L30.9615385,35 L32.3076923,35 L32.3076923,33.6538462 L32.3076923,1.34615385 L32.3076923,0 L30.9615385,0 L1.34615385,0 L0,0 Z M2.69230769,2.69230769 L29.6153846,2.69230769 L29.6153846,32.3076923 L20.1923077,32.3076923 L20.1923077,28.2692308 L20.1923077,26.9230769 L18.8461538,26.9230769 L13.4615385,26.9230769 L12.1153846,26.9230769 L12.1153846,28.2692308 L12.1153846,32.3076923 L2.69230769,32.3076923 L2.69230769,2.69230769 Z M5.38461538,5.38461538 L5.38461538,8.07692308 L10.7692308,8.07692308 L10.7692308,5.38461538 L5.38461538,5.38461538 Z M13.4615385,5.38461538 L13.4615385,8.07692308 L18.8461538,8.07692308 L18.8461538,5.38461538 L13.4615385,5.38461538 Z M21.5384615,5.38461538 L21.5384615,8.07692308 L26.9230769,8.07692308 L26.9230769,5.38461538 L21.5384615,5.38461538 Z M5.38461538,10.7692308 L5.38461538,13.4615385 L10.7692308,13.4615385 L10.7692308,10.7692308 L5.38461538,10.7692308 Z M13.4615385,10.7692308 L13.4615385,13.4615385 L18.8461538,13.4615385 L18.8461538,10.7692308 L13.4615385,10.7692308 Z M21.5384615,10.7692308 L21.5384615,13.4615385 L26.9230769,13.4615385 L26.9230769,10.7692308 L21.5384615,10.7692308 Z M5.38461538,16.1538462 L5.38461538,18.8461538 L10.7692308,18.8461538 L10.7692308,16.1538462 L5.38461538,16.1538462 Z M13.4615385,16.1538462 L13.4615385,18.8461538 L18.8461538,18.8461538 L18.8461538,16.1538462 L13.4615385,16.1538462 Z M21.5384615,16.1538462 L21.5384615,18.8461538 L26.9230769,18.8461538 L26.9230769,16.1538462 L21.5384615,16.1538462 Z M5.38461538,21.5384615 L5.38461538,24.2307692 L10.7692308,24.2307692 L10.7692308,21.5384615 L5.38461538,21.5384615 Z M13.4615385,21.5384615 L13.4615385,24.2307692 L18.8461538,24.2307692 L18.8461538,21.5384615 L13.4615385,21.5384615 Z M21.5384615,21.5384615 L21.5384615,24.2307692 L26.9230769,24.2307692 L26.9230769,21.5384615 L21.5384615,21.5384615 Z M5.38461538,26.9230769 L5.38461538,29.6153846 L10.7692308,29.6153846 L10.7692308,26.9230769 L5.38461538,26.9230769 Z M21.5384615,26.9230769 L21.5384615,29.6153846 L26.9230769,29.6153846 L26.9230769,26.9230769 L21.5384615,26.9230769 Z"/>
</svg>
